<?xml version="1.0" encoding="UTF-8" standalone="no"?>
<!-- Created with Inkscape (http://www.inkscape.org/) -->

<svg
   xmlns:dc="http://purl.org/dc/elements/1.1/"
   xmlns:cc="http://creativecommons.org/ns#"
   xmlns:rdf="http://www.w3.org/1999/02/22-rdf-syntax-ns#"
   xmlns:svg="http://www.w3.org/2000/svg"
   xmlns="http://www.w3.org/2000/svg"
   xmlns:sodipodi="http://sodipodi.sourceforge.net/DTD/sodipodi-0.dtd"
   xmlns:inkscape="http://www.inkscape.org/namespaces/inkscape"
   id="svg2"
   version="1.1"
   inkscape:version="0.48.4 r9939"
   width="565.45001"
   height="480.40146"
   xml:space="preserve"
   sodipodi:docname="resFractionsggHmumu2.svg"><metadata
     id="metadata8"><rdf:RDF><cc:Work
         rdf:about=""><dc:format>image/svg+xml</dc:format><dc:type
           rdf:resource="http://purl.org/dc/dcmitype/StillImage" /></cc:Work></rdf:RDF></metadata><defs
     id="defs6"><clipPath
       clipPathUnits="userSpaceOnUse"
       id="clipPath18"><path
         d="m 72,57.6 446.4,0 0,460.8 -446.4,0 0,-460.8 z"
         id="path20"
         inkscape:connector-curvature="0" /></clipPath><clipPath
       clipPathUnits="userSpaceOnUse"
       id="clipPath28"><path
         d="m 72,57.6 446.4,0 0,460.8 -446.4,0 0,-460.8 z"
         id="path30"
         inkscape:connector-curvature="0" /></clipPath><clipPath
       clipPathUnits="userSpaceOnUse"
       id="clipPath38"><path
         d="m 72,57.6 446.4,0 0,460.8 -446.4,0 0,-460.8 z"
         id="path40"
         inkscape:connector-curvature="0" /></clipPath><clipPath
       clipPathUnits="userSpaceOnUse"
       id="clipPath48"><path
         d="m 72,57.6 446.4,0 0,460.8 -446.4,0 0,-460.8 z"
         id="path50"
         inkscape:connector-curvature="0" /></clipPath><clipPath
       clipPathUnits="userSpaceOnUse"
       id="clipPath58"><path
         d="m 72,57.6 446.4,0 0,460.8 -446.4,0 0,-460.8 z"
         id="path60"
         inkscape:connector-curvature="0" /></clipPath><clipPath
       clipPathUnits="userSpaceOnUse"
       id="clipPath68"><path
         d="m 72,57.6 446.4,0 0,460.8 -446.4,0 0,-460.8 z"
         id="path70"
         inkscape:connector-curvature="0" /></clipPath></defs><sodipodi:namedview
     pagecolor="#ffffff"
     bordercolor="#666666"
     borderopacity="1"
     objecttolerance="10"
     gridtolerance="10"
     guidetolerance="10"
     inkscape:pageopacity="0"
     inkscape:pageshadow="2"
     inkscape:window-width="1920"
     inkscape:window-height="1176"
     id="namedview4"
     showgrid="false"
     inkscape:zoom="2.0649396"
     inkscape:cx="282.72574"
     inkscape:cy="240.20073"
     inkscape:window-x="0"
     inkscape:window-y="24"
     inkscape:window-maximized="1"
     inkscape:current-layer="g10"
     fit-margin-top="0"
     fit-margin-left="0"
     fit-margin-right="0"
     fit-margin-bottom="0" /><g
     id="g10"
     inkscape:groupmode="layer"
     inkscape:label="resFractionsggHmumu"
     transform="matrix(1.25,0,0,-1.25,-75.312871,629.47724)"><path
       d="M 0,0 576,0 576,576 0,576 0,0 z"
       style="fill:#ffffff;fill-opacity:1;fill-rule:nonzero;stroke:none"
       id="path12"
       inkscape:connector-curvature="0" /><g
       id="g3161"
       transform="translate(-14.516129,30.774193)"><g
         id="g14"><g
           clip-path="url(#clipPath18)"
           id="g16"><path
             id="path22"
             style="fill:#0000ff;fill-opacity:1;fill-rule:nonzero;stroke:#000000;stroke-width:1;stroke-linecap:square;stroke-linejoin:round;stroke-miterlimit:10;stroke-opacity:1;stroke-dasharray:none"
             d="m 473.76,288 c 0,25.78866 -5.2431,51.29256 -15.38944,74.85859 -10.14635,23.56602 -24.97187,44.67375 -43.51561,61.955 -18.54373,17.28125 -40.39617,30.3544 -64.14086,38.37207 -23.74469,8.01766 -48.85727,10.80278 -73.70998,8.17482 L 295.2,288 l 178.56,0 z"
             inkscape:connector-curvature="0" /></g></g><g
         id="g24"><g
           clip-path="url(#clipPath28)"
           id="g26"><path
             id="path32"
             style="fill:#008000;fill-opacity:1;fill-rule:nonzero;stroke:#000000;stroke-width:1;stroke-linecap:square;stroke-linejoin:round;stroke-miterlimit:10;stroke-opacity:1;stroke-dasharray:none"
             d="m 277.00411,471.36048 c -33.24813,-3.51569 -64.88155,-16.59776 -91.28445,-37.75087 -26.4029,-21.15311 -46.52945,-49.53939 -58.07912,-81.91419 -11.54968,-32.37479 -14.06499,-67.45574 -7.25844,-101.23297 6.80656,-33.77723 22.66538,-64.91281 45.76374,-89.84786 L 295.2,288 277.00411,471.36048 z"
             inkscape:connector-curvature="0" /></g></g><g
         id="g34"><g
           clip-path="url(#clipPath38)"
           id="g36"><path
             id="path42"
             style="fill:#ff0000;fill-opacity:1;fill-rule:nonzero;stroke:#000000;stroke-width:1;stroke-linecap:square;stroke-linejoin:round;stroke-miterlimit:10;stroke-opacity:1;stroke-dasharray:none"
             d="m 166.14584,160.61459 c 15.23024,-16.44128 33.2783,-29.83093 53.23008,-39.49079 19.95177,-9.65986 41.46464,-15.42404 63.44901,-17.00061 L 295.2,288 166.14584,160.61459 z"
             inkscape:connector-curvature="0" /></g></g><g
         id="g44"><g
           clip-path="url(#clipPath48)"
           id="g46"><path
             id="path52"
             style="fill:#00bfbf;fill-opacity:1;fill-rule:nonzero;stroke:#000000;stroke-width:1;stroke-linecap:square;stroke-linejoin:round;stroke-miterlimit:10;stroke-opacity:1;stroke-dasharray:none"
             d="m 282.82493,104.12319 c 26.89046,-1.92839 53.85813,2.45348 78.87437,12.81599 25.01623,10.36251 47.4376,26.43914 65.57748,47.02051 L 295.2,288 282.82493,104.12319 z"
             inkscape:connector-curvature="0" /></g></g><g
         id="g54"><g
           clip-path="url(#clipPath58)"
           id="g56"><path
             id="path62"
             style="fill:#bf00bf;fill-opacity:1;fill-rule:nonzero;stroke:#000000;stroke-width:1;stroke-linecap:square;stroke-linejoin:round;stroke-miterlimit:10;stroke-opacity:1;stroke-dasharray:none"
             d="m 427.27678,163.95969 c 11.99245,13.60656 21.94436,28.98997 29.52443,45.63814 7.58007,16.64817 12.70325,34.37428 15.19899,52.58825 L 295.2,288 427.27678,163.95969 z"
             inkscape:connector-curvature="0" /></g></g><g
         id="g64"><g
           clip-path="url(#clipPath68)"
           id="g66"><path
             id="path72"
             style="fill:#bfbf00;fill-opacity:1;fill-rule:nonzero;stroke:#000000;stroke-width:1;stroke-linecap:square;stroke-linejoin:round;stroke-miterlimit:10;stroke-opacity:1;stroke-dasharray:none"
             d="m 472.0002,262.18608 c 0.5857,4.27441 1.02574,8.56873 1.31931,12.87504 0.29357,4.3063 0.44049,8.62192 0.44049,12.93887 L 295.2,288 472.0002,262.18608 z"
             inkscape:connector-curvature="0" /></g></g><text
         id="text74"
         transform="matrix(1,0,0,-1,426.82045,427.55745)"><tspan
           id="tspan76"
           sodipodi:role="line"
           y="0"
           x="0 20.58"
           style="font-size:30px;font-variant:normal;font-weight:normal;writing-mode:lr-tb;fill:#000000;fill-opacity:1;fill-rule:nonzero;stroke:none;font-family:DejaVu Sans;-inkscape-font-specification:DejaVuSans">BB</tspan></text>
<text
         id="text78"
         transform="matrix(1,0,0,-1,335.5711,359.16628)"><tspan
           id="tspan80"
           sodipodi:role="line"
           y="0"
           x="0 19.08 38.16"
           style="font-size:30px;font-variant:normal;font-weight:normal;writing-mode:lr-tb;fill:#000000;fill-opacity:1;fill-rule:nonzero;stroke:none;font-family:DejaVu Sans;-inkscape-font-specification:DejaVuSans">27%</tspan></text>
<text
         id="text82"
         transform="matrix(1,0,0,-1,71.82209,347.14309)"><tspan
           id="tspan84"
           sodipodi:role="line"
           y="0"
           x="0 20.58"
           style="font-size:30px;font-variant:normal;font-weight:normal;writing-mode:lr-tb;fill:#000000;fill-opacity:1;fill-rule:nonzero;stroke:none;font-family:DejaVu Sans;-inkscape-font-specification:DejaVuSans">BO</tspan></text>
<text
         id="text86"
         transform="matrix(1,0,0,-1,163.28151,315.29538)"><tspan
           id="tspan88"
           sodipodi:role="line"
           y="0"
           x="0 19.08 38.16"
           style="font-size:30px;font-variant:normal;font-weight:normal;writing-mode:lr-tb;fill:#000000;fill-opacity:1;fill-rule:nonzero;stroke:none;font-family:DejaVu Sans;-inkscape-font-specification:DejaVuSans">36%</tspan></text>
<text
         id="text90"
         transform="matrix(1,0,0,-1,177.13726,93.49868)"><tspan
           id="tspan92"
           sodipodi:role="line"
           y="0"
           x="0 20.58"
           style="font-size:30px;font-variant:normal;font-weight:normal;writing-mode:lr-tb;fill:#000000;fill-opacity:1;fill-rule:nonzero;stroke:none;font-family:DejaVu Sans;-inkscape-font-specification:DejaVuSans">BE</tspan></text>
<text
         id="text94"
         transform="matrix(1,0,0,-1,218.83055,176.95241)"><tspan
           id="tspan96"
           sodipodi:role="line"
           y="0"
           x="0 19.08 38.16"
           style="font-size:30px;font-variant:normal;font-weight:normal;writing-mode:lr-tb;fill:#000000;fill-opacity:1;fill-rule:nonzero;stroke:none;font-family:DejaVu Sans;-inkscape-font-specification:DejaVuSans">12%</tspan></text>
<text
         id="text98"
         transform="matrix(1,0,0,-1,368.34923,88.911224)"><tspan
           id="tspan100"
           sodipodi:role="line"
           y="0"
           x="0 23.610001"
           style="font-size:30px;font-variant:normal;font-weight:normal;writing-mode:lr-tb;fill:#000000;fill-opacity:1;fill-rule:nonzero;stroke:none;font-family:DejaVu Sans;-inkscape-font-specification:DejaVuSans">OO</tspan></text>
<text
         id="text102"
         transform="matrix(1,0,0,-1,304.22458,174.44163)"><tspan
           id="tspan104"
           sodipodi:role="line"
           y="0"
           x="0 19.08 38.16"
           style="font-size:30px;font-variant:normal;font-weight:normal;writing-mode:lr-tb;fill:#000000;fill-opacity:1;fill-rule:nonzero;stroke:none;font-family:DejaVu Sans;-inkscape-font-specification:DejaVuSans">14%</tspan></text>
<text
         id="text106"
         transform="matrix(1,0,0,-1,472.96133,190.83574)"><tspan
           id="tspan108"
           sodipodi:role="line"
           y="0"
           x="0 23.610001"
           style="font-size:30px;font-variant:normal;font-weight:normal;writing-mode:lr-tb;fill:#000000;fill-opacity:1;fill-rule:nonzero;stroke:none;font-family:DejaVu Sans;-inkscape-font-specification:DejaVuSans">OE</tspan></text>
<text
         id="text110"
         transform="matrix(1,0,0,-1,361.28573,230.03682)"><tspan
           id="tspan112"
           sodipodi:role="line"
           y="0"
           x="0 19.08 38.16"
           style="font-size:30px;font-variant:normal;font-weight:normal;writing-mode:lr-tb;fill:#000000;fill-opacity:1;fill-rule:nonzero;stroke:none;font-family:DejaVu Sans;-inkscape-font-specification:DejaVuSans">10%</tspan></text>
<text
         id="text114"
         transform="matrix(1,0,0,-1,491.13146,262.82973)"><tspan
           id="tspan116"
           sodipodi:role="line"
           y="0"
           x="0 18.959999"
           style="font-size:30px;font-variant:normal;font-weight:normal;writing-mode:lr-tb;fill:#000000;fill-opacity:1;fill-rule:nonzero;stroke:none;font-family:DejaVu Sans;-inkscape-font-specification:DejaVuSans">EE</tspan></text>
<text
         id="text118"
         transform="matrix(1,0,0,-1,380.1967,269.31479)"><tspan
           id="tspan120"
           sodipodi:role="line"
           y="0"
           x="0 19.08"
           style="font-size:30px;font-variant:normal;font-weight:normal;writing-mode:lr-tb;fill:#000000;fill-opacity:1;fill-rule:nonzero;stroke:none;font-family:DejaVu Sans;-inkscape-font-specification:DejaVuSans">2%</tspan></text>
</g></g></svg>