<?xml version="1.0" encoding="UTF-8" standalone="no"?>
<svg
   xmlns:dc="http://purl.org/dc/elements/1.1/"
   xmlns:cc="http://web.resource.org/cc/"
   xmlns:rdf="http://www.w3.org/1999/02/22-rdf-syntax-ns#"
   xmlns:svg="http://www.w3.org/2000/svg"
   xmlns="http://www.w3.org/2000/svg"
   xmlns:sodipodi="http://sodipodi.sourceforge.net/DTD/sodipodi-0.dtd"
   xmlns:inkscape="http://www.inkscape.org/namespaces/inkscape"
   width="461.874"
   height="461.874"
   id="svg2178"
   sodipodi:version="0.32"
   inkscape:version="0.45.1"
   sodipodi:docname="CDF.svg"
   sodipodi:docbase="/home/paulini/doc/CMU/Grad_Program/Grad_Webpage/logos"
   inkscape:output_extension="org.inkscape.output.svg.inkscape">
  <metadata
     id="metadata2241">
    <rdf:RDF>
      <cc:Work
         rdf:about="">
        <dc:format>image/svg+xml</dc:format>
        <dc:type
           rdf:resource="http://purl.org/dc/dcmitype/StillImage" />
      </cc:Work>
    </rdf:RDF>
  </metadata>
  <sodipodi:namedview
     inkscape:window-height="638"
     inkscape:window-width="872"
     inkscape:pageshadow="2"
     inkscape:pageopacity="0.0"
     guidetolerance="10.0"
     gridtolerance="10.0"
     objecttolerance="10.0"
     borderopacity="1.0"
     bordercolor="#666666"
     pagecolor="#ffffff"
     id="base"
     inkscape:zoom="0.88119272"
     inkscape:cx="230.937"
     inkscape:cy="230.937"
     inkscape:window-x="0"
     inkscape:window-y="0"
     inkscape:current-layer="svg2178" />
  <defs
     id="defs2180">
    <marker
       id="ArrowEnd"
       viewBox="0 0 10 10"
       refX="0"
       refY="5"
       markerUnits="strokeWidth"
       markerWidth="4"
       markerHeight="3"
       orient="auto">
      <path
         d="M 0 0 L 10 5 L 0 10 z"
         id="path2183" />
    </marker>
    <marker
       id="ArrowStart"
       viewBox="0 0 10 10"
       refX="10"
       refY="5"
       markerUnits="strokeWidth"
       markerWidth="4"
       markerHeight="3"
       orient="auto">
      <path
         d="M 10 0 L 0 5 L 10 10 z"
         id="path2186" />
    </marker>
  </defs>
  <g
     id="g2188">
    <path
       style="stroke:none; fill-rule:evenodd; fill:#443e5a"
       d="M 384.939 230.935C 384.939 145.884 315.994 76.9352 230.939 76.9352C 145.888 76.9352 76.9392 145.88 76.9392 230.935C 76.9392 315.986 145.884 384.935 230.939 384.935C 315.99 384.935 384.939 315.99 384.939 230.935"
       id="path2190" />
    <path
       style="stroke:#a0b8da; stroke-width:4; fill:none"
       d="M 370.939 230.935C 370.939 153.619 308.259 90.9352 230.939 90.9352C 153.623 90.9352 90.9392 153.615 90.9392 230.935C 90.9392 308.251 153.619 370.935 230.939 370.935C 308.255 370.935 370.939 308.255 370.939 230.935z"
       id="path2192" />
    <path
       style="stroke:#a0b8da; stroke-width:5.2199999999999998; fill:none"
       d="M 274.439 27.3572L 274.439 131.755L 274.439 143.935C 274.439 167.958 293.912 187.435 317.939 187.435L 434.517 187.435"
       id="path2194" />
    <path
       style="stroke:#a0b8da; stroke-width:5.2199999999999998; fill:none"
       d="M 239.638 27.3572L 239.638 131.755L 239.638 143.935C 239.638 187.177 274.693 222.232 317.935 222.232L 434.513 222.232"
       id="path2196" />
    <path
       style="stroke:#a0b8da; stroke-width:5.2199999999999998; fill:none"
       d="M 27.3572 187.435L 131.755 187.435L 143.935 187.435C 167.959 187.435 187.435 167.962 187.435 143.935L 187.435 27.3572"
       id="path2198" />
    <path
       style="stroke:#a0b8da; stroke-width:5.2199999999999998; fill:none"
       d="M 27.3572 222.236L 131.755 222.236L 143.935 222.236C 187.177 222.236 222.232 187.181 222.232 143.939L 222.232 27.3612"
       id="path2200" />
    <path
       style="stroke:#a0b8da; stroke-width:5.2199999999999998; fill:none"
       d="M 187.439 434.517L 187.439 330.119L 187.439 317.939C 187.439 293.915 167.966 274.439 143.939 274.439L 27.3611 274.439"
       id="path2202" />
    <path
       style="stroke:#a0b8da; stroke-width:5.2199999999999998; fill:none"
       d="M 222.236 434.517L 222.236 330.119L 222.236 317.939C 222.236 274.697 187.181 239.642 143.939 239.642L 27.3611 239.642"
       id="path2204" />
    <path
       style="stroke:#a0b8da; stroke-width:5.2199999999999998; fill:none"
       d="M 434.517 274.435L 330.119 274.435L 317.939 274.435C 293.916 274.435 274.439 293.908 274.439 317.935L 274.439 434.513"
       id="path2206" />
    <path
       style="stroke:#a0b8da; stroke-width:5.2199999999999998; fill:none"
       d="M 434.517 239.638L 330.119 239.638L 317.939 239.638C 274.697 239.638 239.642 274.693 239.642 317.935L 239.642 434.513"
       id="path2208" />
    <path
       style="stroke:none; fill-rule:evenodd; fill:#1da8dd"
       d="M 141.939 141.935L 319.939 141.935L 319.939 153.935L 294.939 153.935L 294.939 307.935L 319.939 307.935L 319.939 319.935L 141.939 319.935L 141.939 307.935L 166.939 307.935L 166.939 153.935L 141.939 153.935"
       id="path2210" />
    <path
       style="stroke:#1da8dd; stroke-width:1; fill:none"
       d="M 141.939 141.935L 319.939 141.935L 319.939 153.935L 294.939 153.935L 294.939 307.935L 319.939 307.935L 319.939 319.935L 141.939 319.935L 141.939 307.935L 166.939 307.935L 166.939 153.935L 141.939 153.935L 141.939 141.935z"
       id="path2212" />
    <path
       style="stroke:none; fill-rule:evenodd; fill:#443e5a"
       d="M 204.939 307.935L 256.939 307.935L 256.939 153.935L 204.939 153.935L 204.939 307.935z"
       id="path2214" />
    <path
       style="stroke:#a0b8da; stroke-width:5.2199999999999998; fill:none"
       d="M 274.439 27.3572L 274.439 131.755L 274.439 143.935C 274.439 167.958 293.912 187.435 317.939 187.435L 434.517 187.435"
       id="path2216" />
    <path
       style="stroke:#a0b8da; stroke-width:5.2199999999999998; fill:none"
       d="M 239.638 27.3572L 239.638 131.755L 239.638 143.935C 239.638 187.177 274.693 222.232 317.935 222.232L 434.513 222.232"
       id="path2218" />
    <path
       style="stroke:#a0b8da; stroke-width:5.2199999999999998; fill:none"
       d="M 27.3572 187.435L 131.755 187.435L 143.935 187.435C 167.959 187.435 187.435 167.962 187.435 143.935L 187.435 27.3572"
       id="path2220" />
    <path
       style="stroke:#a0b8da; stroke-width:5.2199999999999998; fill:none"
       d="M 27.3572 222.236L 131.755 222.236L 143.935 222.236C 187.177 222.236 222.232 187.181 222.232 143.939L 222.232 27.3612"
       id="path2222" />
    <path
       style="stroke:#a0b8da; stroke-width:5.2199999999999998; fill:none"
       d="M 187.439 434.517L 187.439 330.119L 187.439 317.939C 187.439 293.915 167.966 274.439 143.939 274.439L 27.3611 274.439"
       id="path2224" />
    <path
       style="stroke:#a0b8da; stroke-width:5.2199999999999998; fill:none"
       d="M 222.236 434.517L 222.236 330.119L 222.236 317.939C 222.236 274.697 187.181 239.642 143.939 239.642L 27.3611 239.642"
       id="path2226" />
    <path
       style="stroke:#a0b8da; stroke-width:5.2199999999999998; fill:none"
       d="M 434.517 274.435L 330.119 274.435L 317.939 274.435C 293.916 274.435 274.439 293.908 274.439 317.935L 274.439 434.513"
       id="path2228" />
    <path
       style="stroke:#a0b8da; stroke-width:5.2199999999999998; fill:none"
       d="M 434.517 239.638L 330.119 239.638L 317.939 239.638C 274.697 239.638 239.642 274.693 239.642 317.935L 239.642 434.513"
       id="path2230" />
    <path
       style="stroke:#1da8dd; stroke-width:2; fill:none"
       d="M 204.939 307.935L 256.939 307.935L 256.939 153.935L 204.939 153.935L 204.939 307.935z"
       id="path2232" />
    <path
       style="stroke:none; fill-rule:evenodd; fill:#c42d4a"
       d="M 177.416 189.736L 172.689 189.736L 166.751 194.939C 159.494 190.638 154.435 189.24 146.623 189.24C 122.423 189.24 105.044 206.974 105.044 231.634C 105.044 243.08 108.451 252.107 115.494 259.923C 123.084 268.287 132.431 272.029 145.302 272.029C 164.771 272.029 175.99 262.556 180.169 242.837L 173.349 241.185C 170.38 256.517 161.584 265.232 148.939 265.232C 133.986 265.232 126.947 253.888 126.947 229.654C 126.947 206.853 133.982 194.943 147.509 194.943C 159.712 194.943 167.744 203.427 172.693 221.83L 178.521 221.173L 177.416 189.736z"
       id="path2234" />
    <path
       style="stroke:none; fill-rule:evenodd; fill:#c42d4a"
       d="M 199.638 254.529C 199.638 261.462 199.638 261.904 198.873 262.783C 197.888 263.994 195.584 264.431 189.877 264.431L 188.232 264.431L 188.232 270.33L 228.689 270.33C 242.541 270.33 251.337 268.353 258.154 263.619C 267.935 256.798 273.337 244.806 273.337 229.732C 273.337 214.99 267.939 203.548 257.603 196.833C 251.009 192.466 242.873 190.935 227.369 190.935L 188.228 190.935L 188.228 196.833L 189.873 196.833C 195.576 196.833 197.88 197.283 198.869 198.494C 199.634 199.373 199.634 199.814 199.634 206.747L 199.638 254.529zM 226.037 264.435C 220.65 264.435 219.443 263.115 219.443 257.283L 219.443 203.455C 219.443 198.173 220.759 196.841 226.037 196.841L 228.783 196.841C 244.064 196.841 251.435 207.529 251.435 229.544C 251.435 241.322 249.123 251.997 245.494 256.951C 242.197 261.681 235.712 264.435 228.345 264.435L 226.037 264.435z"
       id="path2236" />
    <path
       style="stroke:none; fill-rule:evenodd; fill:#c42d4a"
       d="M 353.076 190.939L 280.259 190.939L 280.259 196.837L 281.912 196.837C 287.65 196.837 289.966 197.287 290.962 198.497C 291.736 199.376 291.736 199.818 291.736 206.751L 291.736 254.525C 291.736 261.458 291.736 261.9 290.962 262.779C 289.97 263.99 287.654 264.427 281.912 264.427L 280.259 264.427L 280.259 270.326L 324.259 270.326L 324.259 264.427L 321.408 264.427C 315.599 264.427 313.298 263.99 312.31 262.779C 311.544 261.9 311.544 261.458 311.544 254.525L 311.544 232.29L 313.408 232.29C 322.08 232.29 327.349 237.794 328.556 247.919L 334.486 247.919L 334.486 210.603L 328.556 210.603C 327.353 220.837 322.08 226.232 313.408 226.232L 311.544 226.232L 311.544 206.31C 311.544 201.798 311.763 200.587 312.642 199.267C 313.849 197.619 316.486 196.837 320.994 196.837L 323.08 196.837C 331.209 196.837 337.916 199.81 341.65 204.986C 343.955 208.177 346.373 213.681 348.021 219.513L 353.732 219.513L 353.076 190.939z"
       id="path2238" />
  </g>
</svg>
