<?xml version="1.0" encoding="UTF-8" standalone="no"?>
<svg
   xmlns:dc="http://purl.org/dc/elements/1.1/"
   xmlns:cc="http://creativecommons.org/ns#"
   xmlns:rdf="http://www.w3.org/1999/02/22-rdf-syntax-ns#"
   xmlns:svg="http://www.w3.org/2000/svg"
   xmlns="http://www.w3.org/2000/svg"
   xmlns:sodipodi="http://sodipodi.sourceforge.net/DTD/sodipodi-0.dtd"
   xmlns:inkscape="http://www.inkscape.org/namespaces/inkscape"
   width="416.512"
   height="416.828"
   id="svg2261"
   sodipodi:version="0.32"
   inkscape:version="0.48.4 r9939"
   sodipodi:docname="CMS-Color-Label-JH.svn.svg"
   inkscape:output_extension="org.inkscape.output.svg.inkscape"
   version="1.1">
  <metadata
     id="metadata2372">
    <rdf:RDF>
      <cc:Work
         rdf:about="">
        <dc:format>image/svg+xml</dc:format>
        <dc:type
           rdf:resource="http://purl.org/dc/dcmitype/StillImage" />
        <dc:title></dc:title>
      </cc:Work>
    </rdf:RDF>
  </metadata>
  <sodipodi:namedview
     inkscape:window-height="1176"
     inkscape:window-width="1920"
     inkscape:pageshadow="2"
     inkscape:pageopacity="0.0"
     guidetolerance="10.0"
     gridtolerance="10.0"
     objecttolerance="10.0"
     borderopacity="1.0"
     bordercolor="#666666"
     pagecolor="#ffffff"
     id="base"
     inkscape:zoom="2.5233775"
     inkscape:cx="207.88856"
     inkscape:cy="208.41395"
     inkscape:window-x="0"
     inkscape:window-y="24"
     inkscape:current-layer="svg2261"
     showgrid="false"
     inkscape:window-maximized="1" />
  <defs
     id="defs2263">
    <marker
       id="ArrowEnd"
       viewBox="0 0 10 10"
       refX="0"
       refY="5"
       markerUnits="strokeWidth"
       markerWidth="4"
       markerHeight="3"
       orient="auto">
      <path
         d="M 0 0 L 10 5 L 0 10 z"
         id="path2266" />
    </marker>
    <marker
       id="ArrowStart"
       viewBox="0 0 10 10"
       refX="10"
       refY="5"
       markerUnits="strokeWidth"
       markerWidth="4"
       markerHeight="3"
       orient="auto">
      <path
         d="M 10 0 L 0 5 L 10 10 z"
         id="path2269" />
    </marker>
  </defs>
  <path
     inkscape:connector-curvature="0"
     id="path2273"
     d="m 404.121,13.0191 0.188,390.3749 -390.8709,0 -0.188,-390.3749 390.8709,0"
     style="fill:#f8dec6;fill-rule:evenodd;stroke:none" />
  <path
     inkscape:connector-curvature="0"
     id="path2275"
     d="m 13.1841,403.582 c 0,0 391.8669,-0.25 390.6249,-0.25 -1.242,0 -0.145,0.008 -0.684,-8.106 C 382.516,82.8091 127.078,14.5001 13.8281,13.7542 c -0.425,0 -0.64,0.0269 -0.64,0.0269 l 0,389.8049"
     style="fill:#00efff;fill-rule:evenodd;stroke:none" />
  <path
     inkscape:connector-curvature="0"
     id="path2277"
     d="m 13.1841,403.582 c 0,0 391.8669,-0.25 390.6249,-0.25 -1.242,0 -0.145,0.008 -0.684,-8.106 C 382.516,82.8091 127.078,14.5001 13.8281,13.7542 c -0.425,0 -0.64,0.0269 -0.64,0.0269 l 0,389.8049 -0.004,-0.004 z"
     style="fill:none;stroke:#858585;stroke-width:0.5" />
  <path
     inkscape:connector-curvature="0"
     id="path2279"
     d="m 12.5431,176.684 c 0,0 2.067,0.234 4.035,0.304 85.9999,3 216.4999,65.5 221.9999,222 0.164,4.758 0.305,4.653 0.305,4.653 -255.8631,0 -226.4919,-0.028 -226.4919,-0.028 l 0.148,-226.929"
     style="fill:#ffc30b;fill-rule:evenodd;stroke:none" />
  <path
     inkscape:connector-curvature="0"
     id="path2281"
     d="m 12.5431,176.684 c 0,0 2.067,0.234 4.035,0.304 85.9999,3 216.4999,65.5 221.9999,222 0.164,4.758 0.305,4.653 0.305,4.653 -255.8631,0 -226.4919,-0.028 -226.4919,-0.028 l 0.148,-226.929 0.004,0 z"
     style="fill:none;stroke:#858585;stroke-width:0.5" />
  <path
     inkscape:connector-curvature="0"
     id="path2283"
     d="m 13.3641,252.336 c 0,0 1.312,0.316 3.742,0.379 29.465,0.769 140.4649,22.769 146.4649,149.769 0.148,3.18 -0.059,1.153 -0.059,1.153 -171.21089,0 -150.1249,-0.028 -150.1249,-0.028 l -0.023,-151.277"
     style="fill:#efedff;fill-rule:evenodd;stroke:none" />
  <path
     inkscape:connector-curvature="0"
     id="path2285"
     d="m 13.3641,252.336 c 0,0 1.312,0.316 3.742,0.379 29.465,0.769 140.4649,22.769 146.4649,149.769 0.148,3.18 -0.059,1.153 -0.059,1.153 -171.21089,0 -150.1249,-0.028 -150.1249,-0.028 l -0.023,-151.277 0,0.004 z"
     style="fill:none;stroke:#858585;stroke-width:0.5" />
  <path
     inkscape:connector-curvature="0"
     id="path2287"
     d="m 13.3711,313.48 c 0,0 82.918,-4.578 90.7929,88.372 0.157,1.878 0.157,1.878 0.157,1.878 -101.30889,0 -90.9539,0.059 -90.9539,0.059 l 0,-90.309"
     style="fill:#bebeff;fill-rule:evenodd;stroke:none" />
  <path
     inkscape:connector-curvature="0"
     id="path2289"
     d="m 13.3711,313.48 c 0,0 82.918,-4.578 90.7929,88.372 0.157,1.878 0.157,1.878 0.157,1.878 -101.30889,0 -90.9539,0.059 -90.9539,0.059 l 0,-90.309 0.004,0 z"
     style="fill:none;stroke:#858585;stroke-width:0.5" />
  <path
     inkscape:connector-curvature="0"
     id="path2291"
     d="m 113.164,139.539 c -7.683,5.121 -17.6869,6.953 -26.9609,6.953 -26.836,0 -42.941,-16.953 -42.941,-43.672 0,-27.4449 20.25,-43.0619 45.988,-43.0619 8.903,0 18.0549,2.07 26.2269,5.609 -1.219,3.047 -1.949,6.219 -2.559,9.391 l -0.851,0.1211 C 110.36,72.6841 101.332,64.3911 88.7661,64.3911 c -22.445,0 -33.547,18.175 -33.547,38.9139 0,23.421 13.418,38.425 32.691,38.425 13.1719,0 23.4219,-7.804 25.8599,-9.878 l -0.61,7.683"
     style="fill:#162de6;fill-rule:evenodd;stroke:none" />
  <path
     inkscape:connector-curvature="0"
     id="path2295"
     d="m 212.469,61.5861 c 3.172,30.129 6.586,60.1399 9.879,83.4409 -2.195,-0.121 -3.902,-0.363 -5.731,-0.363 -1.949,0 -3.902,0.242 -5.73,0.363 -2.07,-24.519 -4.512,-50.8669 -6.219,-62.9448 -14.148,25.2498 -24.64,44.7698 -31.961,61.6048 l -1.34,0 -6.707,-13.785 c -7.804,-16.101 -16.343,-31.9609 -24.64,-47.8198 -2.684,23.7848 -5.977,47.9408 -5.977,62.9448 -1.586,-0.121 -2.926,-0.363 -4.269,-0.363 -1.586,0 -2.926,0.242 -4.391,0.363 3.172,-19.64 10.488,-70.6329 11.711,-83.4409 l 3.172,0 c 9.758,19.394 21.469,42.3279 34.523,63.9219 11.586,-20.86 22.813,-42.0859 35.133,-63.9219 l 2.559,0"
     style="fill:#162de6;fill-rule:evenodd;stroke:none" />
  <path
     inkscape:connector-curvature="0"
     id="path2299"
     d="m 237.473,128.559 c 4.754,7.804 10.246,12.683 19.762,12.683 9.879,0 16.953,-8.172 16.953,-17.808 0,-22.688 -38.184,-12.688 -38.184,-40.2579 0,-15.735 12.442,-23.4219 27.082,-23.4219 5.852,0 12.93,1.828 17.442,5.8549 -1.461,3.172 -2.317,6.586 -3.293,10.004 l -1.219,0 c -2.559,-6.586 -7.93,-10.613 -15.125,-10.613 -8.418,0 -15.367,5.609 -15.367,14.269 0,22.4459 38.425,13.418 38.425,39.4029 0,17.441 -13.539,27.812 -30.128,27.812 -5.977,0 -15.735,-2.558 -19.883,-7.074 1.219,-3.535 1.828,-7.195 2.316,-10.855 l 1.219,0"
     style="fill:#162de6;fill-rule:evenodd;stroke:none" />
  <path
     inkscape:connector-curvature="0"
     id="path2303"
     d="m 13.3601,317.996 c 0,0 78.773,-4.348 86.254,83.953 0.148,1.781 0.148,1.781 0.148,1.781 -96.24199,0 -86.406,0.055 -86.406,0.055 l 0,-85.793"
     style="fill:#28f823;fill-rule:evenodd;stroke:none" />
  <path
     inkscape:connector-curvature="0"
     id="path2305"
     d="m 13.3601,317.996 c 0,0 78.773,-4.348 86.254,83.953 0.148,1.781 0.148,1.781 0.148,1.781 -96.24199,0 -86.406,0.055 -86.406,0.055 l 0,-85.793 0.004,0.004 z"
     style="fill:none;stroke:#858585;stroke-width:0.5" />
  <path
     inkscape:connector-curvature="0"
     id="path2307"
     d="m 13.3321,358.637 c 0,0 41.461,-2.289 45.395,44.183 0.078,0.938 0.078,0.938 0.078,0.938 -50.65199,0 -45.477,0.027 -45.477,0.027 l 0,-45.152"
     style="fill:#6fff11;fill-rule:evenodd;stroke:none" />
  <path
     inkscape:connector-curvature="0"
     id="path2309"
     d="m 13.3321,358.637 c 0,0 41.461,-2.289 45.395,44.183 0.078,0.938 0.078,0.938 0.078,0.938 -50.65199,0 -45.477,0.027 -45.477,0.027 l 0,-45.152 0.004,0.004 z"
     style="fill:none;stroke:#858585;stroke-width:0.5" />
  <path
     inkscape:connector-curvature="0"
     id="path2311"
     d="m 13.3321,380.238 c 0,0 21.621,-1.191 23.676,23.043 0.039,0.488 0.039,0.488 0.039,0.488 -26.418,0 -23.719,0.016 -23.719,0.016 l 0,-23.547"
     style="fill:#a4f379;fill-rule:evenodd;stroke:none" />
  <path
     inkscape:connector-curvature="0"
     id="path2313"
     d="m 13.3321,380.238 c 0,0 21.621,-1.191 23.676,23.043 0.039,0.488 0.039,0.488 0.039,0.488 -26.418,0 -23.719,0.016 -23.719,0.016 l 0,-23.547 0.004,0 z"
     style="fill:none;stroke:#858585;stroke-width:0.5" />
  <g
     id="g3105">
    <path
       style="fill:none;stroke:#f52110;stroke-width:6;stroke-linecap:round;stroke-linejoin:round"
       d="m 16.6101,400.121 c 0,0 46.543,-100.762 173.6169,-130.348 73.187,-17.039 143.187,-56.375 175.187,-93.707"
       id="path2323"
       inkscape:connector-curvature="0" />
    <path
       style="fill:none;stroke:#f52110;stroke-width:6;stroke-linecap:round;stroke-linejoin:round"
       d="m 359.61,81.9881 c 0,0 -78,91.3319 -199.446,161.3829 C 37.2971,314.238 16.6141,400.121 16.6141,400.121"
       id="path2325"
       inkscape:connector-curvature="0" />
    <path
       style="fill:none;stroke:#f52110;stroke-width:6;stroke-linecap:round;stroke-linejoin:round"
       d="m 16.6101,400.121 c 0,0 51.062,-86.742 154.6209,-80.906 81.633,4.597 155.191,-27.231 178.199,-74.797"
       id="path2327"
       inkscape:connector-curvature="0" />
    <path
       style="fill:none;stroke:#f52110;stroke-width:6;stroke-linecap:round;stroke-linejoin:round"
       d="m 16.6101,400.121 c 0,0 40.5,-69.961 166.6519,-41.559 114.168,25.707 121.395,-7.921 139.395,-27.257"
       id="path2329"
       inkscape:connector-curvature="0" />
  </g>
  <path
     inkscape:connector-curvature="0"
     id="path2331"
     d="m 13.1021,403.726 390.3079,0 0,-390.6239 -390.3079,0 0,390.6239 z"
     style="fill:none;stroke:#000000;stroke-width:2.5" />
  <path
     inkscape:connector-curvature="0"
     id="path2333"
     d="m 383.969,250.414 c -2.266,0.484 -2.68,2.375 -2.68,3.613 0,2.336 1.727,4.227 5.125,4.227 3.039,0 5.379,-1.078 5.379,-4.281 0,-1.133 -0.535,-3.094 -3.543,-3.688 l 0,-1.687 c 4.875,0.718 5.09,4.675 5.09,5.648 0,2.93 -1.906,5.809 -6.871,5.809 -3.973,0 -6.727,-2.266 -6.727,-6.024 0,-3.324 2.067,-5.055 4.227,-5.305 l 0,1.688"
     style="fill:#162de6;fill-rule:evenodd;stroke:none" />
  <path
     inkscape:connector-curvature="0"
     id="path2335"
     d="m 383.321,242.855 c 0,-3.003 2.535,-4.367 4.964,-4.367 2.426,0 4.965,1.364 4.965,4.367 0,3.004 -2.535,4.368 -4.965,4.368 -2.425,0 -4.964,-1.364 -4.964,-4.368 z m 8.562,0 c 0,-2.265 -2.336,-2.734 -3.598,-2.734 -1.257,0 -3.597,0.465 -3.597,2.734 0,2.266 2.336,2.731 3.597,2.731 1.258,0 3.598,-0.465 3.598,-2.731"
     style="fill:#162de6;fill-rule:evenodd;stroke:none" />
  <path
     inkscape:connector-curvature="0"
     id="path2337"
     d="m 383.59,236.68 0,-1.493 1.328,0 0,-0.035 c -0.504,-0.34 -1.597,-1.148 -1.597,-2.84 0,-1.687 1.023,-2.23 1.527,-2.5 -0.879,-0.789 -1.527,-1.418 -1.527,-2.875 0,-1.003 0.519,-2.91 3.164,-2.91 l 6.511,0 0,1.582 -6.078,0 c -1.293,0 -2.176,0.395 -2.176,1.743 0,1.328 1.258,2.21 2.516,2.21 l 5.738,0 0,1.582 -6.511,0 c -0.789,0 -1.743,0.305 -1.743,1.473 0,0.899 0.575,2.481 3.129,2.481 l 5.125,0 0,1.582 -9.406,0"
     style="fill:#162de6;fill-rule:evenodd;stroke:none" />
  <path
     inkscape:connector-curvature="0"
     id="path2339"
     d="m 383.59,221.816 0,-1.492 1.328,0 0,-0.035 c -0.535,-0.375 -1.597,-1.094 -1.597,-2.805 0,-2.5 2.05,-3.922 4.695,-3.922 2.246,0 5.25,0.934 5.25,4.137 0,1.258 -0.594,2.086 -1.258,2.5 l 0,0.035 4.711,0 0,1.582 -13.133,0 0.004,0 z m 8.313,-4.086 c 0,-1.726 -1.563,-2.535 -3.633,-2.535 -1.203,0 -3.524,0.125 -3.524,2.571 0,2.281 2.461,2.535 3.993,2.535 2.5,0 3.164,-1.563 3.164,-2.571"
     style="fill:#162de6;fill-rule:evenodd;stroke:none" />
  <path
     inkscape:connector-curvature="0"
     id="path2341"
     d="m 386.449,211.738 c -2.246,-0.07 -3.128,-1.562 -3.128,-3.883 0,-0.753 0.214,-3.488 2.625,-3.488 l 5.414,0 c 0.394,0 0.554,-0.195 0.554,-0.519 0,-0.141 -0.035,-0.34 -0.07,-0.52 l 1.148,0 c 0.071,0.27 0.18,0.504 0.18,0.859 0,1.403 -0.719,1.618 -1.437,1.672 0.664,0.61 1.527,1.563 1.527,3.399 0,1.726 -1.098,2.949 -2.715,2.949 -0.789,0 -2.625,-0.231 -2.949,-2.859 l -0.32,-2.606 c -0.036,-0.375 -0.18,-0.824 -1.114,-0.824 -0.988,0 -1.527,0.719 -1.527,2.211 0,1.797 1.098,2.051 1.816,2.156 l 0,1.453 -0.004,0 z m 1.747,-5.793 c 0.195,0.25 0.339,0.645 0.593,2.606 0.106,0.769 0.34,2.011 1.528,2.011 1.023,0 1.636,-0.519 1.636,-1.707 0,-1.472 -0.953,-2.91 -2.211,-2.91 l -1.546,0"
     style="fill:#162de6;fill-rule:evenodd;stroke:none" />
  <path
     inkscape:connector-curvature="0"
     id="path2343"
     d="m 386.754,195.797 c -1.258,0.195 -2.012,0.898 -2.012,2.23 0,1.961 1.868,2.59 3.543,2.59 1.618,0 3.614,-0.394 3.614,-2.57 0,-1.059 -0.789,-1.977 -2.231,-2.246 l 0,-1.528 c 1.492,0.161 3.598,1.079 3.598,3.829 0,2.644 -1.996,4.207 -4.711,4.207 -2.91,0 -5.234,-1.403 -5.234,-4.516 0,-2.461 1.796,-3.399 3.433,-3.524 l 0,1.528"
     style="fill:#162de6;fill-rule:evenodd;stroke:none" />
  <path
     inkscape:connector-curvature="0"
     id="path2345"
     d="m 384.903,190.734 6.113,0 c 0.734,0 0.734,-0.629 0.734,-0.953 l 0,-0.555 1.239,0 c 0.05,0.575 0.125,1.024 0.125,1.184 0,1.563 -0.879,1.906 -2.012,1.906 l -6.203,0 0,1.274 -1.313,0 0,-1.274 -2.625,0 0,-1.582 2.625,0 0,-1.508 1.313,0 0,1.508"
     style="fill:#162de6;fill-rule:evenodd;stroke:none" />
  <path
     inkscape:connector-curvature="0"
     id="path2347"
     d="m 392.996,171.848 -7.625,0 c -0.375,0 -2.011,-0.036 -3.218,-0.036 l 0,0.036 10.847,3.632 0,1.727 -10.828,3.633 0,0.035 c 1.188,0 2.824,-0.035 3.199,-0.035 l 7.625,0 0,1.687 -12.914,0 0,-2.5 10.918,-3.687 0,-0.035 -10.918,-3.668 0,-2.481 12.914,0 0,1.688"
     style="fill:#162de6;fill-rule:evenodd;stroke:none" />
  <path
     inkscape:connector-curvature="0"
     id="path2349"
     d="m 392.996,161.551 -1.363,0 -0.035,0.035 c 1.094,0.664 1.672,1.473 1.672,2.984 0,1.383 -0.664,3.055 -2.91,3.055 l -6.762,0 0,-1.582 6.242,0 c 1.547,0 2.067,-0.789 2.067,-1.817 0,-1.996 -1.762,-2.589 -3.129,-2.589 l -5.18,0 0,-1.582 9.406,0 0,1.492"
     style="fill:#162de6;fill-rule:evenodd;stroke:none" />
  <path
     inkscape:connector-curvature="0"
     id="path2351"
     d="m 383.321,153.848 c 0,-3.004 2.535,-4.368 4.964,-4.368 2.426,0 4.965,1.364 4.965,4.368 0,3.004 -2.535,4.371 -4.965,4.371 -2.425,0 -4.964,-1.367 -4.964,-4.371 z m 8.562,0 c 0,-2.266 -2.336,-2.731 -3.598,-2.731 -1.257,0 -3.597,0.465 -3.597,2.731 0,2.265 2.336,2.734 3.597,2.734 1.258,0 3.598,-0.465 3.598,-2.734"
     style="fill:#162de6;fill-rule:evenodd;stroke:none" />
  <path
     inkscape:connector-curvature="0"
     id="path2353"
     d="m 392.996,140.008 0,1.582 -5.793,0 c -1.636,0 -2.461,0.465 -2.461,2.012 0,0.898 0.575,2.48 3.129,2.48 l 5.125,0 0,1.582 -9.406,0 0,-1.492 1.328,0 0,-0.035 c -0.504,-0.34 -1.597,-1.223 -1.597,-2.84 0,-1.453 0.593,-3.289 3.273,-3.289 l 6.402,0"
     style="fill:#162de6;fill-rule:evenodd;stroke:none" />
  <path
     inkscape:connector-curvature="0"
     id="path2355"
     d="m 383.86,124.68 c -1.996,0.089 -2.625,1.742 -2.625,3.199 0,1.097 0.304,2.949 2.265,2.949 1.094,0 1.453,-0.769 1.637,-1.527 l 0.844,-3.688 c 0.394,-1.672 1.402,-2.929 3.453,-2.929 3.055,0 3.902,2.839 3.902,5.054 0,2.391 -0.719,3.324 -1.238,3.903 -0.988,1.093 -2.067,1.312 -3.274,1.312 l 0,-1.637 c 2.336,0 3.02,-1.906 3.02,-3.558 0,-1.258 -0.32,-3.379 -2.176,-3.379 -1.347,0 -1.777,0.629 -2.281,2.75 l -0.609,2.644 c -0.196,0.844 -0.789,2.75 -3.039,2.75 -2.012,0 -3.993,-1.312 -3.993,-4.441 0,-4.516 2.696,-4.965 4.118,-5.035 l 0,1.637"
     style="fill:#162de6;fill-rule:evenodd;stroke:none" />
  <path
     inkscape:connector-curvature="0"
     id="path2357"
     d="m 383.321,116.828 c 0,-3.004 2.535,-4.367 4.964,-4.367 2.426,0 4.965,1.363 4.965,4.367 0,3.004 -2.535,4.371 -4.965,4.371 -2.425,0 -4.964,-1.363 -4.964,-4.371 z m 8.562,0 c 0,-2.266 -2.336,-2.73 -3.598,-2.73 -1.257,0 -3.597,0.464 -3.597,2.73 0,2.266 2.336,2.734 3.597,2.734 1.258,0 3.598,-0.464 3.598,-2.734"
     style="fill:#162de6;fill-rule:evenodd;stroke:none" />
  <path
     inkscape:connector-curvature="0"
     id="path2359"
     d="m 380.082,110.617 12.914,0 0,-1.582 -12.914,0 0,1.582 z"
     style="fill:#162de6;fill-rule:evenodd;stroke:none" />
  <path
     inkscape:connector-curvature="0"
     id="path2361"
     d="m 390.047,98.6721 c 0.449,0.051 1.777,0.484 2.57,1.6719 0.286,0.429 0.645,1.043 0.645,2.554 0,2.645 -1.996,4.207 -4.711,4.207 -2.91,0 -5.234,-1.402 -5.234,-4.515 0,-2.7149 2.156,-4.0469 5.484,-4.0469 l 0,6.8709 c 1.961,0 3.094,-0.918 3.094,-2.73 0,-1.493 -1.149,-2.375 -1.852,-2.426 l 0,-1.5819 0.004,-0.004 z m -2.5,1.5119 c -1.453,0.089 -2.805,0.699 -2.805,2.625 0,1.453 1.348,2.605 2.805,2.605 l 0,-5.234"
     style="fill:#162de6;fill-rule:evenodd;stroke:none" />
  <path
     inkscape:connector-curvature="0"
     id="path2363"
     d="m 392.996,88.9881 0,1.582 -5.793,0 c -1.636,0 -2.461,0.465 -2.461,2.0121 0,0.8979 0.575,2.4799 3.129,2.4799 l 5.125,0 0,1.582 -9.406,0 0,-1.492 1.328,0 0,-0.035 c -0.504,-0.34 -1.597,-1.223 -1.597,-2.84 0,-1.453 0.593,-3.289 3.273,-3.289 l 6.402,0"
     style="fill:#162de6;fill-rule:evenodd;stroke:none" />
  <path
     inkscape:connector-curvature="0"
     id="path2365"
     d="m 383.321,82.8121 c 0,-3.003 2.535,-4.367 4.964,-4.367 2.426,0 4.965,1.364 4.965,4.367 0,3.004 -2.535,4.372 -4.965,4.372 -2.425,0 -4.964,-1.368 -4.964,-4.372 z m 8.562,0 c 0,-2.265 -2.336,-2.7299 -3.598,-2.7299 -1.257,0 -3.597,0.4649 -3.597,2.7299 0,2.266 2.336,2.735 3.597,2.735 1.258,0 3.598,-0.4649 3.598,-2.735"
     style="fill:#162de6;fill-rule:evenodd;stroke:none" />
  <path
     inkscape:connector-curvature="0"
     id="path2367"
     d="m 392.996,75.0191 0,1.583 -9.406,0 0,-1.583 9.406,0 z m -11.117,1.586 -1.797,0 0,-1.582 1.797,0 0,1.582"
     style="fill:#162de6;fill-rule:evenodd;stroke:none" />
  <path
     inkscape:connector-curvature="0"
     id="path2369"
     d="m 392.996,64.8401 0,1.4921 -1.293,0 0,0.0349 c 1.274,0.684 1.563,1.7621 1.563,2.68 0,3.199 -3.004,4.137 -5.25,4.137 -2.645,0 -4.695,-1.418 -4.695,-3.922 0,-1.707 1.058,-2.426 1.597,-2.8049 l -0.125,-0.0351 -4.711,0 0,-1.582 12.914,0 z m -1.093,4.172 c 0,-1.004 -0.664,-2.571 -3.164,-2.571 -1.528,0 -3.993,0.25 -3.993,2.535 0,2.446 2.321,2.571 3.524,2.571 2.066,0 3.633,-0.809 3.633,-2.535"
     style="fill:#162de6;fill-rule:evenodd;stroke:none" />
</svg>
