<?xml version="1.0" encoding="UTF-8" standalone="no"?>
<svg
   xmlns:dc="http://purl.org/dc/elements/1.1/"
   xmlns:cc="http://web.resource.org/cc/"
   xmlns:rdf="http://www.w3.org/1999/02/22-rdf-syntax-ns#"
   xmlns:svg="http://www.w3.org/2000/svg"
   xmlns="http://www.w3.org/2000/svg"
   xmlns:sodipodi="http://sodipodi.sourceforge.net/DTD/sodipodi-0.dtd"
   xmlns:inkscape="http://www.inkscape.org/namespaces/inkscape"
   width="416.512"
   height="416.828"
   id="svg2261"
   sodipodi:version="0.32"
   inkscape:version="0.45.1"
   sodipodi:docname="CMS-Color-Label.svg"
   sodipodi:docbase="/home/paulini/doc/CMU/Grad_Program/Grad_Webpage/logos"
   inkscape:output_extension="org.inkscape.output.svg.inkscape">
  <metadata
     id="metadata2372">
    <rdf:RDF>
      <cc:Work
         rdf:about="">
        <dc:format>image/svg+xml</dc:format>
        <dc:type
           rdf:resource="http://purl.org/dc/dcmitype/StillImage" />
      </cc:Work>
    </rdf:RDF>
  </metadata>
  <sodipodi:namedview
     inkscape:window-height="638"
     inkscape:window-width="872"
     inkscape:pageshadow="2"
     inkscape:pageopacity="0.0"
     guidetolerance="10.0"
     gridtolerance="10.0"
     objecttolerance="10.0"
     borderopacity="1.0"
     bordercolor="#666666"
     pagecolor="#ffffff"
     id="base"
     inkscape:zoom="0.97642192"
     inkscape:cx="208.256"
     inkscape:cy="208.414"
     inkscape:window-x="0"
     inkscape:window-y="0"
     inkscape:current-layer="svg2261" />
  <defs
     id="defs2263">
    <marker
       id="ArrowEnd"
       viewBox="0 0 10 10"
       refX="0"
       refY="5"
       markerUnits="strokeWidth"
       markerWidth="4"
       markerHeight="3"
       orient="auto">
      <path
         d="M 0 0 L 10 5 L 0 10 z"
         id="path2266" />
    </marker>
    <marker
       id="ArrowStart"
       viewBox="0 0 10 10"
       refX="10"
       refY="5"
       markerUnits="strokeWidth"
       markerWidth="4"
       markerHeight="3"
       orient="auto">
      <path
         d="M 10 0 L 0 5 L 10 10 z"
         id="path2269" />
    </marker>
  </defs>
  <g
     id="g2271">
    <path
       style="stroke:none; fill-rule:evenodd; fill:#f8dec6"
       d="M 404.121 13.0191L 404.309 403.394L 13.4381 403.394L 13.2501 13.0191L 404.121 13.0191"
       id="path2273" />
    <path
       style="stroke:none; fill-rule:evenodd; fill:#00efff"
       d="M 13.1841 403.582C 13.1841 403.582 405.051 403.332 403.809 403.332C 402.567 403.332 403.664 403.34 403.125 395.226C 382.516 82.8091 127.078 14.5001 13.8281 13.7542C 13.4031 13.7542 13.1881 13.7811 13.1881 13.7811L 13.1881 403.586"
       id="path2275" />
    <path
       style="stroke:#858585; stroke-width:0.5; fill:none"
       d="M 13.1841 403.582C 13.1841 403.582 405.051 403.332 403.809 403.332C 402.567 403.332 403.664 403.34 403.125 395.226C 382.516 82.8091 127.078 14.5001 13.8281 13.7542C 13.4031 13.7542 13.1881 13.7811 13.1881 13.7811L 13.1881 403.586L 13.1841 403.582z"
       id="path2277" />
    <path
       style="stroke:none; fill-rule:evenodd; fill:#ffc30b"
       d="M 12.5431 176.684C 12.5431 176.684 14.6101 176.918 16.5781 176.988C 102.578 179.988 233.078 242.488 238.578 398.988C 238.742 403.746 238.883 403.641 238.883 403.641C -16.9801 403.641 12.3911 403.613 12.3911 403.613L 12.5391 176.684"
       id="path2279" />
    <path
       style="stroke:#858585; stroke-width:0.5; fill:none"
       d="M 12.5431 176.684C 12.5431 176.684 14.6101 176.918 16.5781 176.988C 102.578 179.988 233.078 242.488 238.578 398.988C 238.742 403.746 238.883 403.641 238.883 403.641C -16.9801 403.641 12.3911 403.613 12.3911 403.613L 12.5391 176.684L 12.5431 176.684z"
       id="path2281" />
    <path
       style="stroke:none; fill-rule:evenodd; fill:#efedff"
       d="M 13.3641 252.336C 13.3641 252.336 14.6761 252.652 17.1061 252.715C 46.5711 253.484 157.571 275.484 163.571 402.484C 163.719 405.664 163.512 403.637 163.512 403.637C -7.69889 403.637 13.3871 403.609 13.3871 403.609L 13.3641 252.332"
       id="path2283" />
    <path
       style="stroke:#858585; stroke-width:0.5; fill:none"
       d="M 13.3641 252.336C 13.3641 252.336 14.6761 252.652 17.1061 252.715C 46.5711 253.484 157.571 275.484 163.571 402.484C 163.719 405.664 163.512 403.637 163.512 403.637C -7.69889 403.637 13.3871 403.609 13.3871 403.609L 13.3641 252.332L 13.3641 252.336z"
       id="path2285" />
    <path
       style="stroke:none; fill-rule:evenodd; fill:#bebeff"
       d="M 13.3711 313.48C 13.3711 313.48 96.2891 308.902 104.164 401.852C 104.321 403.73 104.321 403.73 104.321 403.73C 3.01211 403.73 13.3671 403.789 13.3671 403.789L 13.3671 313.48"
       id="path2287" />
    <path
       style="stroke:#858585; stroke-width:0.5; fill:none"
       d="M 13.3711 313.48C 13.3711 313.48 96.2891 308.902 104.164 401.852C 104.321 403.73 104.321 403.73 104.321 403.73C 3.01211 403.73 13.3671 403.789 13.3671 403.789L 13.3671 313.48L 13.3711 313.48z"
       id="path2289" />
    <path
       style="stroke:none; fill-rule:evenodd; fill:#162de6"
       d="M 113.164 139.539C 105.481 144.66 95.4771 146.492 86.2031 146.492C 59.3671 146.492 43.2621 129.539 43.2621 102.82C 43.2621 75.3751 63.5121 59.7581 89.2501 59.7581C 98.1531 59.7581 107.305 61.8281 115.477 65.3671C 114.258 68.4141 113.528 71.5861 112.918 74.7581L 112.067 74.8792C 110.36 72.6841 101.332 64.3911 88.7661 64.3911C 66.3211 64.3911 55.2191 82.5661 55.2191 103.305C 55.2191 126.726 68.6371 141.73 87.9101 141.73C 101.082 141.73 111.332 133.926 113.77 131.852L 113.16 139.535"
       id="path2291" />
    <path
       style="stroke:#ffffff; stroke-width:1; fill:none"
       d="M 113.164 139.539C 105.481 144.66 95.4771 146.492 86.2031 146.492C 59.3671 146.492 43.2621 129.539 43.2621 102.82C 43.2621 75.3751 63.5121 59.7581 89.2501 59.7581C 98.1531 59.7581 107.305 61.8281 115.477 65.3671C 114.258 68.4141 113.528 71.5861 112.918 74.7581L 112.067 74.8792C 110.36 72.6841 101.332 64.3911 88.7661 64.3911C 66.3211 64.3911 55.2191 82.5661 55.2191 103.305C 55.2191 126.726 68.6371 141.73 87.9101 141.73C 101.082 141.73 111.332 133.926 113.77 131.852L 113.16 139.535L 113.164 139.539z"
       id="path2293" />
    <path
       style="stroke:none; fill-rule:evenodd; fill:#162de6"
       d="M 212.469 61.5861C 215.641 91.7151 219.055 121.726 222.348 145.027C 220.153 144.906 218.446 144.664 216.617 144.664C 214.668 144.664 212.715 144.906 210.887 145.027C 208.817 120.508 206.375 94.1601 204.668 82.0822C 190.52 107.332 180.028 126.852 172.707 143.687L 171.367 143.687L 164.66 129.902C 156.856 113.801 148.317 97.9411 140.02 82.0822C 137.336 105.867 134.043 130.023 134.043 145.027C 132.457 144.906 131.117 144.664 129.774 144.664C 128.188 144.664 126.848 144.906 125.383 145.027C 128.555 125.387 135.871 74.3941 137.094 61.5861L 140.266 61.5861C 150.024 80.9801 161.735 103.914 174.789 125.508C 186.375 104.648 197.602 83.4221 209.922 61.5861L 212.481 61.5861"
       id="path2295" />
    <path
       style="stroke:#ffffff; stroke-width:1; fill:none"
       d="M 212.469 61.5861C 215.641 91.7151 219.055 121.726 222.348 145.027C 220.153 144.906 218.446 144.664 216.617 144.664C 214.668 144.664 212.715 144.906 210.887 145.027C 208.817 120.508 206.375 94.1601 204.668 82.0822C 190.52 107.332 180.028 126.852 172.707 143.687L 171.367 143.687L 164.66 129.902C 156.856 113.801 148.317 97.9411 140.02 82.0822C 137.336 105.867 134.043 130.023 134.043 145.027C 132.457 144.906 131.117 144.664 129.774 144.664C 128.188 144.664 126.848 144.906 125.383 145.027C 128.555 125.387 135.871 74.3941 137.094 61.5861L 140.266 61.5861C 150.024 80.9801 161.735 103.914 174.789 125.508C 186.375 104.648 197.602 83.4221 209.922 61.5861L 212.481 61.5861L 212.469 61.5861z"
       id="path2297" />
    <path
       style="stroke:none; fill-rule:evenodd; fill:#162de6"
       d="M 237.473 128.559C 242.227 136.363 247.719 141.242 257.235 141.242C 267.114 141.242 274.188 133.07 274.188 123.434C 274.188 100.746 236.004 110.746 236.004 83.1761C 236.004 67.4411 248.446 59.7542 263.086 59.7542C 268.938 59.7542 276.016 61.5822 280.528 65.6091C 279.067 68.7811 278.211 72.1951 277.235 75.6131L 276.016 75.6131C 273.457 69.0271 268.086 65.0001 260.891 65.0001C 252.473 65.0001 245.524 70.6091 245.524 79.2691C 245.524 101.715 283.949 92.6871 283.949 118.672C 283.949 136.113 270.41 146.484 253.821 146.484C 247.844 146.484 238.086 143.926 233.938 139.41C 235.157 135.875 235.766 132.215 236.254 128.555L 237.473 128.555"
       id="path2299" />
    <path
       style="stroke:#ffffff; stroke-width:1; fill:none"
       d="M 237.473 128.559C 242.227 136.363 247.719 141.242 257.235 141.242C 267.114 141.242 274.188 133.07 274.188 123.434C 274.188 100.746 236.004 110.746 236.004 83.1761C 236.004 67.4411 248.446 59.7542 263.086 59.7542C 268.938 59.7542 276.016 61.5822 280.528 65.6091C 279.067 68.7811 278.211 72.1951 277.235 75.6131L 276.016 75.6131C 273.457 69.0271 268.086 65.0001 260.891 65.0001C 252.473 65.0001 245.524 70.6091 245.524 79.2691C 245.524 101.715 283.949 92.6871 283.949 118.672C 283.949 136.113 270.41 146.484 253.821 146.484C 247.844 146.484 238.086 143.926 233.938 139.41C 235.157 135.875 235.766 132.215 236.254 128.555L 237.473 128.555L 237.473 128.559z"
       id="path2301" />
    <path
       style="stroke:none; fill-rule:evenodd; fill:#28f823"
       d="M 13.3601 317.996C 13.3601 317.996 92.1331 313.648 99.6141 401.949C 99.7621 403.73 99.7621 403.73 99.7621 403.73C 3.52011 403.73 13.3561 403.785 13.3561 403.785L 13.3561 317.992"
       id="path2303" />
    <path
       style="stroke:#858585; stroke-width:0.5; fill:none"
       d="M 13.3601 317.996C 13.3601 317.996 92.1331 313.648 99.6141 401.949C 99.7621 403.73 99.7621 403.73 99.7621 403.73C 3.52011 403.73 13.3561 403.785 13.3561 403.785L 13.3561 317.992L 13.3601 317.996z"
       id="path2305" />
    <path
       style="stroke:none; fill-rule:evenodd; fill:#6fff11"
       d="M 13.3321 358.637C 13.3321 358.637 54.7931 356.348 58.7271 402.82C 58.8051 403.758 58.8051 403.758 58.8051 403.758C 8.15311 403.758 13.3281 403.785 13.3281 403.785L 13.3281 358.633"
       id="path2307" />
    <path
       style="stroke:#858585; stroke-width:0.5; fill:none"
       d="M 13.3321 358.637C 13.3321 358.637 54.7931 356.348 58.7271 402.82C 58.8051 403.758 58.8051 403.758 58.8051 403.758C 8.15311 403.758 13.3281 403.785 13.3281 403.785L 13.3281 358.633L 13.3321 358.637z"
       id="path2309" />
    <path
       style="stroke:none; fill-rule:evenodd; fill:#a4f379"
       d="M 13.3321 380.238C 13.3321 380.238 34.9531 379.047 37.0081 403.281C 37.0471 403.769 37.0471 403.769 37.0471 403.769C 10.6291 403.769 13.3281 403.785 13.3281 403.785L 13.3281 380.238"
       id="path2311" />
    <path
       style="stroke:#858585; stroke-width:0.5; fill:none"
       d="M 13.3321 380.238C 13.3321 380.238 34.9531 379.047 37.0081 403.281C 37.0471 403.769 37.0471 403.769 37.0471 403.769C 10.6291 403.769 13.3281 403.785 13.3281 403.785L 13.3281 380.238L 13.3321 380.238z"
       id="path2313" />
    <path
       style="stroke:#f8dec6; stroke-width:9; stroke-linejoin:round; stroke-linecap:round; fill:none"
       d="M 16.6101 400.121C 16.6101 400.121 63.1531 299.359 190.227 269.773C 263.414 252.734 333.414 213.398 365.414 176.066"
       id="path2315" />
    <path
       style="stroke:#f8dec6; stroke-width:9; stroke-linejoin:round; stroke-linecap:round; fill:none"
       d="M 359.61 81.9881C 359.61 81.9881 281.61 173.32 160.164 243.371C 37.2971 314.238 16.6141 400.121 16.6141 400.121"
       id="path2317" />
    <path
       style="stroke:#f8dec6; stroke-width:9; stroke-linejoin:round; stroke-linecap:round; fill:none"
       d="M 16.6101 400.121C 16.6101 400.121 67.6721 313.379 171.231 319.215C 252.864 323.812 326.422 291.984 349.43 244.418"
       id="path2319" />
    <path
       style="stroke:#f8dec6; stroke-width:9; stroke-linejoin:round; stroke-linecap:round; fill:none"
       d="M 16.6101 400.121C 16.6101 400.121 57.1101 330.16 183.262 358.562C 297.43 384.269 304.657 350.641 322.657 331.305"
       id="path2321" />
    <path
       style="stroke:#f52110; stroke-width:6; stroke-linejoin:round; stroke-linecap:round; fill:none"
       d="M 16.6101 400.121C 16.6101 400.121 63.1531 299.359 190.227 269.773C 263.414 252.734 333.414 213.398 365.414 176.066"
       id="path2323" />
    <path
       style="stroke:#f52110; stroke-width:6; stroke-linejoin:round; stroke-linecap:round; fill:none"
       d="M 359.61 81.9881C 359.61 81.9881 281.61 173.32 160.164 243.371C 37.2971 314.238 16.6141 400.121 16.6141 400.121"
       id="path2325" />
    <path
       style="stroke:#f52110; stroke-width:6; stroke-linejoin:round; stroke-linecap:round; fill:none"
       d="M 16.6101 400.121C 16.6101 400.121 67.6721 313.379 171.231 319.215C 252.864 323.812 326.422 291.984 349.43 244.418"
       id="path2327" />
    <path
       style="stroke:#f52110; stroke-width:6; stroke-linejoin:round; stroke-linecap:round; fill:none"
       d="M 16.6101 400.121C 16.6101 400.121 57.1101 330.16 183.262 358.562C 297.43 384.269 304.657 350.641 322.657 331.305"
       id="path2329" />
    <path
       style="stroke:#000000; stroke-width:2.5; fill:none"
       d="M 13.1021 403.726L 403.41 403.726L 403.41 13.1021L 13.1021 13.1021L 13.1021 403.726z"
       id="path2331" />
    <path
       style="stroke:none; fill-rule:evenodd; fill:#162de6"
       d="M 383.969 250.414C 381.703 250.898 381.289 252.789 381.289 254.027C 381.289 256.363 383.016 258.254 386.414 258.254C 389.453 258.254 391.793 257.176 391.793 253.973C 391.793 252.84 391.258 250.879 388.25 250.285L 388.25 248.598C 393.125 249.316 393.34 253.273 393.34 254.246C 393.34 257.176 391.434 260.055 386.469 260.055C 382.496 260.055 379.742 257.789 379.742 254.031C 379.742 250.707 381.809 248.976 383.969 248.726L 383.969 250.414"
       id="path2333" />
    <path
       style="stroke:none; fill-rule:evenodd; fill:#162de6"
       d="M 383.321 242.855C 383.321 239.852 385.856 238.488 388.285 238.488C 390.711 238.488 393.25 239.852 393.25 242.855C 393.25 245.859 390.715 247.223 388.285 247.223C 385.86 247.223 383.321 245.859 383.321 242.855zM 391.883 242.855C 391.883 240.59 389.547 240.121 388.285 240.121C 387.028 240.121 384.688 240.586 384.688 242.855C 384.688 245.121 387.024 245.586 388.285 245.586C 389.543 245.586 391.883 245.121 391.883 242.855"
       id="path2335" />
    <path
       style="stroke:none; fill-rule:evenodd; fill:#162de6"
       d="M 383.59 236.68L 383.59 235.187L 384.918 235.187L 384.918 235.152C 384.414 234.812 383.321 234.004 383.321 232.312C 383.321 230.625 384.344 230.082 384.848 229.812C 383.969 229.023 383.321 228.394 383.321 226.937C 383.321 225.934 383.84 224.027 386.485 224.027L 392.996 224.027L 392.996 225.609L 386.918 225.609C 385.625 225.609 384.742 226.004 384.742 227.352C 384.742 228.68 386 229.562 387.258 229.562L 392.996 229.562L 392.996 231.144L 386.485 231.144C 385.696 231.144 384.742 231.449 384.742 232.617C 384.742 233.516 385.317 235.098 387.871 235.098L 392.996 235.098L 392.996 236.68L 383.59 236.68"
       id="path2337" />
    <path
       style="stroke:none; fill-rule:evenodd; fill:#162de6"
       d="M 383.59 221.816L 383.59 220.324L 384.918 220.324L 384.918 220.289C 384.383 219.914 383.321 219.195 383.321 217.484C 383.321 214.984 385.371 213.562 388.016 213.562C 390.262 213.562 393.266 214.496 393.266 217.699C 393.266 218.957 392.672 219.785 392.008 220.199L 392.008 220.234L 396.719 220.234L 396.719 221.816L 383.586 221.816L 383.59 221.816zM 391.903 217.73C 391.903 216.004 390.34 215.195 388.27 215.195C 387.067 215.195 384.746 215.32 384.746 217.766C 384.746 220.047 387.207 220.301 388.739 220.301C 391.239 220.301 391.903 218.738 391.903 217.73"
       id="path2339" />
    <path
       style="stroke:none; fill-rule:evenodd; fill:#162de6"
       d="M 386.449 211.738C 384.203 211.668 383.321 210.176 383.321 207.855C 383.321 207.102 383.535 204.367 385.946 204.367L 391.36 204.367C 391.754 204.367 391.914 204.172 391.914 203.848C 391.914 203.707 391.879 203.508 391.844 203.328L 392.992 203.328C 393.063 203.598 393.172 203.832 393.172 204.187C 393.172 205.59 392.453 205.805 391.735 205.859C 392.399 206.469 393.262 207.422 393.262 209.258C 393.262 210.984 392.164 212.207 390.547 212.207C 389.758 212.207 387.922 211.976 387.598 209.348L 387.278 206.742C 387.242 206.367 387.098 205.918 386.164 205.918C 385.176 205.918 384.637 206.637 384.637 208.129C 384.637 209.926 385.735 210.18 386.453 210.285L 386.453 211.738L 386.449 211.738zM 388.196 205.945C 388.391 206.195 388.535 206.59 388.789 208.551C 388.895 209.32 389.129 210.562 390.317 210.562C 391.34 210.562 391.953 210.043 391.953 208.855C 391.953 207.383 391 205.945 389.742 205.945L 388.196 205.945"
       id="path2341" />
    <path
       style="stroke:none; fill-rule:evenodd; fill:#162de6"
       d="M 386.754 195.797C 385.496 195.992 384.742 196.695 384.742 198.027C 384.742 199.988 386.61 200.617 388.285 200.617C 389.903 200.617 391.899 200.223 391.899 198.047C 391.899 196.988 391.11 196.07 389.668 195.801L 389.668 194.273C 391.16 194.434 393.266 195.352 393.266 198.102C 393.266 200.746 391.27 202.309 388.555 202.309C 385.645 202.309 383.321 200.906 383.321 197.793C 383.321 195.332 385.117 194.394 386.754 194.269L 386.754 195.797"
       id="path2343" />
    <path
       style="stroke:none; fill-rule:evenodd; fill:#162de6"
       d="M 384.903 190.734L 391.016 190.734C 391.75 190.734 391.75 190.105 391.75 189.781L 391.75 189.226L 392.989 189.226C 393.039 189.801 393.114 190.25 393.114 190.41C 393.114 191.973 392.235 192.316 391.102 192.316L 384.899 192.316L 384.899 193.59L 383.586 193.59L 383.586 192.316L 380.961 192.316L 380.961 190.734L 383.586 190.734L 383.586 189.226L 384.899 189.226L 384.899 190.734"
       id="path2345" />
    <path
       style="stroke:none; fill-rule:evenodd; fill:#162de6"
       d="M 392.996 171.848L 385.371 171.848C 384.996 171.848 383.36 171.812 382.153 171.812L 382.153 171.848L 393 175.48L 393 177.207L 382.172 180.84L 382.172 180.875C 383.36 180.875 384.996 180.84 385.371 180.84L 392.996 180.84L 392.996 182.527L 380.082 182.527L 380.082 180.027L 391 176.34L 391 176.305L 380.082 172.637L 380.082 170.156L 392.996 170.156L 392.996 171.844"
       id="path2347" />
    <path
       style="stroke:none; fill-rule:evenodd; fill:#162de6"
       d="M 392.996 161.551L 391.633 161.551L 391.598 161.586C 392.692 162.25 393.27 163.059 393.27 164.57C 393.27 165.953 392.606 167.625 390.36 167.625L 383.598 167.625L 383.598 166.043L 389.84 166.043C 391.387 166.043 391.907 165.254 391.907 164.226C 391.907 162.23 390.145 161.637 388.778 161.637L 383.598 161.637L 383.598 160.055L 393.004 160.055L 393.004 161.547"
       id="path2349" />
    <path
       style="stroke:none; fill-rule:evenodd; fill:#162de6"
       d="M 383.321 153.848C 383.321 150.844 385.856 149.48 388.285 149.48C 390.711 149.48 393.25 150.844 393.25 153.848C 393.25 156.852 390.715 158.219 388.285 158.219C 385.86 158.219 383.321 156.852 383.321 153.848zM 391.883 153.848C 391.883 151.582 389.547 151.117 388.285 151.117C 387.028 151.117 384.688 151.582 384.688 153.848C 384.688 156.113 387.024 156.582 388.285 156.582C 389.543 156.582 391.883 156.117 391.883 153.848"
       id="path2351" />
    <path
       style="stroke:none; fill-rule:evenodd; fill:#162de6"
       d="M 392.996 140.008L 392.996 141.59L 387.203 141.59C 385.567 141.59 384.742 142.055 384.742 143.602C 384.742 144.5 385.317 146.082 387.871 146.082L 392.996 146.082L 392.996 147.664L 383.59 147.664L 383.59 146.172L 384.918 146.172L 384.918 146.137C 384.414 145.797 383.321 144.914 383.321 143.297C 383.321 141.844 383.914 140.008 386.594 140.008L 392.996 140.008"
       id="path2353" />
    <path
       style="stroke:none; fill-rule:evenodd; fill:#162de6"
       d="M 383.86 124.68C 381.864 124.769 381.235 126.422 381.235 127.879C 381.235 128.976 381.539 130.828 383.5 130.828C 384.594 130.828 384.953 130.059 385.137 129.301L 385.981 125.613C 386.375 123.941 387.383 122.684 389.434 122.684C 392.489 122.684 393.336 125.523 393.336 127.738C 393.336 130.129 392.617 131.062 392.098 131.641C 391.11 132.734 390.031 132.953 388.824 132.953L 388.824 131.316C 391.16 131.316 391.844 129.41 391.844 127.758C 391.844 126.5 391.524 124.379 389.668 124.379C 388.321 124.379 387.891 125.008 387.387 127.129L 386.778 129.773C 386.582 130.617 385.989 132.523 383.739 132.523C 381.727 132.523 379.746 131.211 379.746 128.082C 379.746 123.566 382.442 123.117 383.864 123.047L 383.864 124.684"
       id="path2355" />
    <path
       style="stroke:none; fill-rule:evenodd; fill:#162de6"
       d="M 383.321 116.828C 383.321 113.824 385.856 112.461 388.285 112.461C 390.711 112.461 393.25 113.824 393.25 116.828C 393.25 119.832 390.715 121.199 388.285 121.199C 385.86 121.199 383.321 119.836 383.321 116.828zM 391.883 116.828C 391.883 114.562 389.547 114.098 388.285 114.098C 387.028 114.098 384.688 114.562 384.688 116.828C 384.688 119.094 387.024 119.562 388.285 119.562C 389.543 119.562 391.883 119.098 391.883 116.828"
       id="path2357" />
    <path
       style="stroke:none; fill-rule:evenodd; fill:#162de6"
       d="M 380.082 110.617L 392.996 110.617L 392.996 109.035L 380.082 109.035L 380.082 110.617z"
       id="path2359" />
    <path
       style="stroke:none; fill-rule:evenodd; fill:#162de6"
       d="M 390.047 98.6721C 390.496 98.7231 391.824 99.1561 392.617 100.344C 392.903 100.773 393.262 101.387 393.262 102.898C 393.262 105.543 391.266 107.105 388.551 107.105C 385.641 107.105 383.317 105.703 383.317 102.59C 383.317 99.8751 385.473 98.5431 388.801 98.5431L 388.801 105.414C 390.762 105.414 391.895 104.496 391.895 102.684C 391.895 101.191 390.746 100.309 390.043 100.258L 390.043 98.6761L 390.047 98.6721zM 387.547 100.184C 386.094 100.273 384.742 100.883 384.742 102.809C 384.742 104.262 386.09 105.414 387.547 105.414L 387.547 100.18"
       id="path2361" />
    <path
       style="stroke:none; fill-rule:evenodd; fill:#162de6"
       d="M 392.996 88.9881L 392.996 90.5701L 387.203 90.5701C 385.567 90.5701 384.742 91.0351 384.742 92.5822C 384.742 93.4801 385.317 95.0621 387.871 95.0621L 392.996 95.0621L 392.996 96.6441L 383.59 96.6441L 383.59 95.1521L 384.918 95.1521L 384.918 95.1171C 384.414 94.7771 383.321 93.8941 383.321 92.2771C 383.321 90.8241 383.914 88.9881 386.594 88.9881L 392.996 88.9881"
       id="path2363" />
    <path
       style="stroke:none; fill-rule:evenodd; fill:#162de6"
       d="M 383.321 82.8121C 383.321 79.8091 385.856 78.4451 388.285 78.4451C 390.711 78.4451 393.25 79.8091 393.25 82.8121C 393.25 85.8161 390.715 87.1841 388.285 87.1841C 385.86 87.1841 383.321 85.8161 383.321 82.8121zM 391.883 82.8121C 391.883 80.5471 389.547 80.0822 388.285 80.0822C 387.028 80.0822 384.688 80.5471 384.688 82.8121C 384.688 85.0781 387.024 85.5471 388.285 85.5471C 389.543 85.5471 391.883 85.0822 391.883 82.8121"
       id="path2365" />
    <path
       style="stroke:none; fill-rule:evenodd; fill:#162de6"
       d="M 392.996 75.0191L 392.996 76.6021L 383.59 76.6021L 383.59 75.0191L 392.996 75.0191zM 381.879 76.6051L 380.082 76.6051L 380.082 75.0231L 381.879 75.0231L 381.879 76.6051"
       id="path2367" />
    <path
       style="stroke:none; fill-rule:evenodd; fill:#162de6"
       d="M 392.996 64.8401L 392.996 66.3322L 391.703 66.3322L 391.703 66.3671C 392.977 67.0511 393.266 68.1292 393.266 69.0471C 393.266 72.2461 390.262 73.1841 388.016 73.1841C 385.371 73.1841 383.321 71.7661 383.321 69.2621C 383.321 67.5551 384.379 66.8361 384.918 66.4572L 384.793 66.4221L 380.082 66.4221L 380.082 64.8401L 392.996 64.8401zM 391.903 69.0121C 391.903 68.0081 391.239 66.4411 388.739 66.4411C 387.211 66.4411 384.746 66.6911 384.746 68.9761C 384.746 71.4221 387.067 71.5471 388.27 71.5471C 390.336 71.5471 391.903 70.7381 391.903 69.0121"
       id="path2369" />
  </g>
</svg>
