<?xml version="1.0" encoding="UTF-8" standalone="no"?>
<svg
   xmlns:dc="http://purl.org/dc/elements/1.1/"
   xmlns:cc="http://web.resource.org/cc/"
   xmlns:rdf="http://www.w3.org/1999/02/22-rdf-syntax-ns#"
   xmlns:svg="http://www.w3.org/2000/svg"
   xmlns="http://www.w3.org/2000/svg"
   xmlns:sodipodi="http://sodipodi.sourceforge.net/DTD/sodipodi-0.dtd"
   xmlns:inkscape="http://www.inkscape.org/namespaces/inkscape"
   width="422.316"
   height="422.32"
   id="svg2374"
   sodipodi:version="0.32"
   inkscape:version="0.45.1"
   sodipodi:docname="CMS-BW-Label.svg"
   sodipodi:docbase="/home/paulini/doc/CMU/Grad_Program/Grad_Webpage/logos"
   inkscape:output_extension="org.inkscape.output.svg.inkscape">
  <metadata
     id="metadata2481">
    <rdf:RDF>
      <cc:Work
         rdf:about="">
        <dc:format>image/svg+xml</dc:format>
        <dc:type
           rdf:resource="http://purl.org/dc/dcmitype/StillImage" />
      </cc:Work>
    </rdf:RDF>
  </metadata>
  <sodipodi:namedview
     inkscape:window-height="638"
     inkscape:window-width="872"
     inkscape:pageshadow="2"
     inkscape:pageopacity="0.0"
     guidetolerance="10.0"
     gridtolerance="10.0"
     objecttolerance="10.0"
     borderopacity="1.0"
     bordercolor="#666666"
     pagecolor="#ffffff"
     id="base"
     inkscape:zoom="0.96372417"
     inkscape:cx="211.158"
     inkscape:cy="211.16"
     inkscape:window-x="0"
     inkscape:window-y="0"
     inkscape:current-layer="svg2374" />
  <defs
     id="defs2376">
    <marker
       id="ArrowEnd"
       viewBox="0 0 10 10"
       refX="0"
       refY="5"
       markerUnits="strokeWidth"
       markerWidth="4"
       markerHeight="3"
       orient="auto">
      <path
         d="M 0 0 L 10 5 L 0 10 z"
         id="path2379" />
    </marker>
    <marker
       id="ArrowStart"
       viewBox="0 0 10 10"
       refX="10"
       refY="5"
       markerUnits="strokeWidth"
       markerWidth="4"
       markerHeight="3"
       orient="auto">
      <path
         d="M 10 0 L 0 5 L 10 10 z"
         id="path2382" />
    </marker>
  </defs>
  <g
     id="g2384">
    <path
       style="stroke:#000000; stroke-width:1.5; fill:none"
       d="M 15.7765 311.598C 15.7765 311.598 103.305 306.766 111.617 404.879C 111.785 406.86 111.785 406.86 111.785 406.86C 4.84753 406.86 15.7765 406.919 15.7765 406.919L 15.7765 311.594L 15.7765 311.598z"
       id="path2386" />
    <path
       style="stroke:#000000; stroke-width:2.3999999999999999; fill:none"
       d="M 15.7575 406.739C 15.7575 406.739 399.09 407.379 406.359 407.391C 406.359 407.391 406.367 406.489 405.699 398.379C 373.699 12.5005 15.7575 16.9375 15.7575 16.9375L 15.7575 406.743L 15.7575 406.739z"
       id="path2388" />
    <path
       style="stroke:#000000; stroke-width:2.3999999999999999; fill:none"
       d="M 15.7765 178.739C 15.7765 178.739 225.199 167.176 245.086 401.93C 245.485 406.672 245.485 406.672 245.485 406.672C -10.3793 406.672 15.7735 406.817 15.7735 406.817L 15.7735 178.735L 15.7765 178.739z"
       id="path2390" />
    <path
       style="stroke:#000000; stroke-width:2.3999999999999999; fill:none"
       d="M 15.7765 254.247C 15.7765 254.247 155.906 246.508 169.215 403.59C 169.481 406.762 169.481 406.762 169.481 406.762C -1.72648 406.762 15.7735 406.86 15.7735 406.86L 15.7735 254.243L 15.7765 254.247z"
       id="path2392" />
    <path
       style="stroke:#000000; stroke-width:2.3999999999999999; fill:none"
       d="M 15.7765 306.54C 15.7765 306.54 107.91 301.454 116.66 404.731C 116.836 406.817 116.836 406.817 116.836 406.817C 4.26952 406.817 15.7765 406.879 15.7765 406.879L 15.7765 306.536L 15.7765 306.54z"
       id="path2394" />
    <path
       style="stroke:#000000; stroke-width:2.3999999999999999; fill:none"
       d="M 15.7575 361.586C 15.7575 361.586 57.2185 359.297 61.1515 405.77C 61.2305 406.708 61.2305 406.708 61.2305 406.708C 10.5775 406.708 15.7535 406.735 15.7535 406.735L 15.7535 361.583L 15.7575 361.586z"
       id="path2396" />
    <path
       style="stroke:#000000; stroke-width:2.3999999999999999; fill:none"
       d="M 15.7145 407.004L 15.7145 382.215C 15.7145 382.215 38.4765 380.961 40.6365 406.473C 40.6795 406.989 40.6795 406.989 40.6795 406.989C 15.7375 406.989 15.7145 407.004 15.7145 407.004"
       id="path2398" />
    <path
       style="stroke:#000000; stroke-width:0.14000000000000001; fill:none"
       d="M 399.145 401.848C 398.945 401.7 398.645 401.676 398.445 401.801C 398.098 402.024 398.469 402.426 398.668 402.676C 398.692 402.723 398.692 402.876 398.668 402.876C 398.32 403.075 397.844 402.95 397.52 402.751"
       id="path2400" />
    <path
       style="stroke:#000000; stroke-width:0.14000000000000001; fill:none"
       d="M 399.797 402.047C 399.574 402.024 399.324 402.024 399.172 402.247C 399.047 402.419 399.023 402.645 399.125 402.844C 399.273 403.118 399.598 403.094 399.848 403.043"
       id="path2402" />
    <path
       style="stroke:#000000; stroke-width:0.14000000000000001; fill:none"
       d="M 400.547 402.001C 400.5 402.098 400.449 402.223 400.523 402.325C 400.672 402.45 400.945 402.399 401.047 402.227C 401.047 402.204 401.047 402.153 401.047 402.129C 400.949 402.055 400.797 401.93 400.648 402.004"
       id="path2404" />
    <path
       style="stroke:#000000; stroke-width:0.14000000000000001; fill:none"
       d="M 401.047 402.223C 401.07 402.422 401.094 402.598 401.047 402.747C 401 402.997 400.625 403.02 400.449 402.844"
       id="path2406" />
    <path
       style="stroke:#000000; stroke-width:0.14000000000000001; fill:none"
       d="M 401.395 402.024C 401.567 402.024 401.719 402.024 401.895 402.024C 401.918 402.348 401.797 402.672 401.746 402.997"
       id="path2408" />
    <path
       style="stroke:#000000; stroke-width:0.14000000000000001; fill:none"
       d="M 401.695 402.501C 401.793 402.501 401.895 402.501 401.992 402.501"
       id="path2410" />
    <path
       style="stroke:none; fill-rule:evenodd; fill:#000000"
       d="M 116.625 139.415C 108.942 144.536 98.9375 146.368 89.6635 146.368C 62.8275 146.368 46.7225 129.415 46.7225 102.696C 46.7225 75.2505 66.9725 59.6325 92.7105 59.6325C 101.613 59.6325 110.766 61.7036 118.938 65.2426C 117.719 68.2896 116.988 71.4605 116.379 74.6325L 115.527 74.7535C 113.82 72.5585 104.793 64.2655 92.2265 64.2655C 69.7805 64.2655 58.6795 82.4415 58.6795 103.18C 58.6795 126.602 72.0975 141.606 91.3705 141.606C 104.543 141.606 114.793 133.801 117.231 131.727L 116.621 139.411"
       id="path2412" />
    <path
       style="stroke:#ffffff; stroke-width:1; fill:none"
       d="M 116.625 139.415C 108.942 144.536 98.9375 146.368 89.6635 146.368C 62.8275 146.368 46.7225 129.415 46.7225 102.696C 46.7225 75.2505 66.9725 59.6325 92.7105 59.6325C 101.613 59.6325 110.766 61.7036 118.938 65.2426C 117.719 68.2896 116.988 71.4605 116.379 74.6325L 115.527 74.7535C 113.82 72.5585 104.793 64.2655 92.2265 64.2655C 69.7805 64.2655 58.6795 82.4415 58.6795 103.18C 58.6795 126.602 72.0975 141.606 91.3705 141.606C 104.543 141.606 114.793 133.801 117.231 131.727L 116.621 139.411L 116.625 139.415z"
       id="path2414" />
    <path
       style="stroke:none; fill-rule:evenodd; fill:#000000"
       d="M 215.934 61.4605C 219.102 91.5895 222.52 121.602 225.813 144.903C 223.617 144.782 221.91 144.54 220.082 144.54C 218.133 144.54 216.18 144.782 214.352 144.903C 212.281 120.383 209.84 94.0315 208.133 81.9575C 193.985 107.208 183.492 126.727 176.172 143.563L 174.832 143.563L 168.125 129.782C 160.32 113.68 151.781 97.8205 143.485 81.9605C 140.801 105.747 137.508 129.903 137.508 144.907C 135.922 144.786 134.582 144.543 133.238 144.543C 131.652 144.543 130.313 144.786 128.848 144.907C 132.02 125.266 139.336 74.2736 140.559 61.4645L 143.731 61.4645C 153.488 80.8596 165.199 103.793 178.254 125.387C 189.84 104.528 201.067 83.3005 213.387 61.4645L 215.945 61.4645"
       id="path2416" />
    <path
       style="stroke:#ffffff; stroke-width:1; fill:none"
       d="M 215.934 61.4605C 219.102 91.5895 222.52 121.602 225.813 144.903C 223.617 144.782 221.91 144.54 220.082 144.54C 218.133 144.54 216.18 144.782 214.352 144.903C 212.281 120.383 209.84 94.0315 208.133 81.9575C 193.985 107.208 183.492 126.727 176.172 143.563L 174.832 143.563L 168.125 129.782C 160.32 113.68 151.781 97.8205 143.485 81.9605C 140.801 105.747 137.508 129.903 137.508 144.907C 135.922 144.786 134.582 144.543 133.238 144.543C 131.652 144.543 130.313 144.786 128.848 144.907C 132.02 125.266 139.336 74.2736 140.559 61.4645L 143.731 61.4645C 153.488 80.8596 165.199 103.793 178.254 125.387C 189.84 104.528 201.067 83.3005 213.387 61.4645L 215.945 61.4645L 215.934 61.4605z"
       id="path2418" />
    <path
       style="stroke:none; fill-rule:evenodd; fill:#000000"
       d="M 240.938 128.434C 245.695 136.239 251.184 141.118 260.699 141.118C 270.578 141.118 277.652 132.946 277.652 123.309C 277.652 100.622 239.469 110.622 239.469 83.0505C 239.469 67.3165 251.91 59.6285 266.547 59.6285C 272.402 59.6285 279.477 61.4575 283.988 65.4805C 282.527 68.6525 281.672 72.0665 280.695 75.4846L 279.477 75.4846C 276.918 68.8986 271.547 64.8755 264.352 64.8755C 255.934 64.8755 248.985 70.4846 248.985 79.1445C 248.985 101.59 287.41 92.5625 287.41 118.547C 287.41 135.989 273.871 146.36 257.281 146.36C 251.305 146.36 241.547 143.801 237.399 139.286C 238.617 135.751 239.227 132.09 239.715 128.43L 240.934 128.43"
       id="path2420" />
    <path
       style="stroke:#ffffff; stroke-width:1; fill:none"
       d="M 240.938 128.434C 245.695 136.239 251.184 141.118 260.699 141.118C 270.578 141.118 277.652 132.946 277.652 123.309C 277.652 100.622 239.469 110.622 239.469 83.0505C 239.469 67.3165 251.91 59.6285 266.547 59.6285C 272.402 59.6285 279.477 61.4575 283.988 65.4805C 282.527 68.6525 281.672 72.0665 280.695 75.4846L 279.477 75.4846C 276.918 68.8986 271.547 64.8755 264.352 64.8755C 255.934 64.8755 248.985 70.4846 248.985 79.1445C 248.985 101.59 287.41 92.5625 287.41 118.547C 287.41 135.989 273.871 146.36 257.281 146.36C 251.305 146.36 241.547 143.801 237.399 139.286C 238.617 135.751 239.227 132.09 239.715 128.43L 240.934 128.43L 240.938 128.434z"
       id="path2422" />
    <path
       style="stroke:#ffffff; stroke-width:9; stroke-linejoin:round; stroke-linecap:round; fill:none"
       d="M 18.4915 403.993C 18.4915 403.993 65.0345 303.231 192.109 273.645C 265.297 256.606 335.297 217.27 367.297 179.938"
       id="path2424" />
    <path
       style="stroke:#ffffff; stroke-width:9; stroke-linejoin:round; stroke-linecap:round; fill:none"
       d="M 361.488 85.8555C 361.488 85.8555 283.488 177.188 162.043 247.239C 39.1755 318.106 18.4915 403.989 18.4915 403.989"
       id="path2426" />
    <path
       style="stroke:#ffffff; stroke-width:9; stroke-linejoin:round; stroke-linecap:round; fill:none"
       d="M 18.4915 403.993C 18.4915 403.993 69.5545 317.251 173.113 323.086C 254.746 327.684 328.305 295.856 351.312 248.29"
       id="path2428" />
    <path
       style="stroke:#ffffff; stroke-width:9; stroke-linejoin:round; stroke-linecap:round; fill:none"
       d="M 18.4915 403.993C 18.4915 403.993 58.9915 334.028 185.145 362.434C 299.312 388.141 306.539 354.508 324.539 335.176"
       id="path2430" />
    <path
       style="stroke:#000000; stroke-width:4.7999999999999998; stroke-linejoin:round; stroke-linecap:round; fill:none"
       d="M 18.4915 403.993C 18.4915 403.993 65.0345 303.231 192.109 273.645C 265.297 256.606 335.297 217.27 367.297 179.938"
       id="path2432" />
    <path
       style="stroke:#000000; stroke-width:4.7999999999999998; stroke-linejoin:round; stroke-linecap:round; fill:none"
       d="M 361.488 85.8555C 361.488 85.8555 283.488 177.188 162.043 247.239C 39.1755 318.106 18.4915 403.989 18.4915 403.989"
       id="path2434" />
    <path
       style="stroke:#000000; stroke-width:4.7999999999999998; stroke-linejoin:round; stroke-linecap:round; fill:none"
       d="M 18.4915 403.993C 18.4915 403.993 69.5545 317.251 173.113 323.086C 254.746 327.684 328.305 295.856 351.312 248.29"
       id="path2436" />
    <path
       style="stroke:#000000; stroke-width:4.7999999999999998; stroke-linejoin:round; stroke-linecap:round; fill:none"
       d="M 18.4915 403.993C 18.4915 403.993 58.9915 334.028 185.145 362.434C 299.312 388.141 306.539 354.508 324.539 335.176"
       id="path2438" />
    <path
       style="stroke:#000000; stroke-width:3; fill:none"
       d="M 15.7225 406.598L 406.594 406.598L 406.594 15.7225L 15.7225 15.7225L 15.7225 406.598z"
       id="path2440" />
    <path
       style="stroke:none; fill-rule:evenodd; fill:#000000"
       d="M 383.707 246.29C 381.442 246.774 381.027 248.665 381.027 249.903C 381.027 252.239 382.754 254.129 386.152 254.129C 389.192 254.129 391.531 253.051 391.531 249.852C 391.531 248.719 390.992 246.758 387.988 246.165L 387.988 244.477C 392.863 245.196 393.078 249.153 393.078 250.126C 393.078 253.055 391.172 255.934 386.207 255.934C 382.234 255.934 379.481 253.669 379.481 249.911C 379.481 246.586 381.547 244.856 383.707 244.606L 383.707 246.293"
       id="path2442" />
    <path
       style="stroke:none; fill-rule:evenodd; fill:#000000"
       d="M 383.059 238.727C 383.059 235.723 385.594 234.36 388.023 234.36C 390.449 234.36 392.988 235.723 392.988 238.727C 392.988 241.731 390.453 243.094 388.023 243.094C 385.598 243.094 383.059 241.731 383.059 238.727zM 391.621 238.727C 391.621 236.461 389.285 235.997 388.023 235.997C 386.766 235.997 384.426 236.461 384.426 238.727C 384.426 240.993 386.762 241.458 388.023 241.458C 389.281 241.458 391.621 240.993 391.621 238.727"
       id="path2444" />
    <path
       style="stroke:none; fill-rule:evenodd; fill:#000000"
       d="M 383.328 232.551L 383.328 231.059L 384.656 231.059L 384.656 231.024C 384.152 230.684 383.059 229.876 383.059 228.184C 383.059 226.497 384.082 225.954 384.586 225.684C 383.707 224.895 383.059 224.266 383.059 222.809C 383.059 221.805 383.578 219.899 386.223 219.899L 392.734 219.899L 392.734 221.481L 386.656 221.481C 385.363 221.481 384.481 221.876 384.481 223.223C 384.481 224.551 385.738 225.434 386.996 225.434L 392.734 225.434L 392.734 227.016L 386.223 227.016C 385.434 227.016 384.481 227.321 384.481 228.489C 384.481 229.387 385.055 230.969 387.609 230.969L 392.734 230.969L 392.734 232.551L 383.328 232.551"
       id="path2446" />
    <path
       style="stroke:none; fill-rule:evenodd; fill:#000000"
       d="M 383.328 217.688L 383.328 216.196L 384.656 216.196L 384.656 216.161C 384.117 215.786 383.059 215.067 383.059 213.356C 383.059 210.856 385.109 209.434 387.75 209.434C 389.996 209.434 393 210.368 393 213.571C 393 214.829 392.406 215.657 391.742 216.071L 391.742 216.106L 396.453 216.106L 396.453 217.688L 383.32 217.688L 383.328 217.688zM 391.641 213.606C 391.641 211.879 390.078 211.071 388.008 211.071C 386.805 211.071 384.484 211.196 384.484 213.641C 384.484 215.922 386.949 216.176 388.477 216.176C 390.977 216.176 391.641 214.614 391.641 213.606"
       id="path2448" />
    <path
       style="stroke:none; fill-rule:evenodd; fill:#000000"
       d="M 386.188 207.61C 383.942 207.54 383.059 206.047 383.059 203.727C 383.059 202.973 383.273 200.239 385.684 200.239L 391.098 200.239C 391.492 200.239 391.652 200.043 391.652 199.719C 391.652 199.579 391.617 199.379 391.582 199.2L 392.731 199.2C 392.801 199.469 392.91 199.704 392.91 200.063C 392.91 201.465 392.192 201.68 391.473 201.735C 392.137 202.344 393 203.297 393 205.133C 393 206.86 391.906 208.083 390.285 208.083C 389.496 208.083 387.66 207.852 387.336 205.223L 387.016 202.618C 386.981 202.243 386.836 201.793 385.902 201.793C 384.914 201.793 384.375 202.512 384.375 204.004C 384.375 205.801 385.469 206.055 386.192 206.161L 386.192 207.614L 386.188 207.61zM 387.934 201.821C 388.129 202.071 388.273 202.465 388.523 204.426C 388.629 205.196 388.863 206.438 390.051 206.438C 391.074 206.438 391.688 205.919 391.688 204.731C 391.688 203.258 390.734 201.821 389.477 201.821L 387.93 201.821"
       id="path2450" />
    <path
       style="stroke:none; fill-rule:evenodd; fill:#000000"
       d="M 386.496 191.669C 385.238 191.864 384.484 192.567 384.484 193.899C 384.484 195.86 386.352 196.489 388.027 196.489C 389.645 196.489 391.641 196.094 391.641 193.919C 391.641 192.86 390.852 191.942 389.41 191.672L 389.41 190.145C 390.902 190.305 393.008 191.223 393.008 193.973C 393.008 196.618 391.012 198.18 388.297 198.18C 385.387 198.18 383.062 196.778 383.062 193.665C 383.062 191.204 384.859 190.266 386.496 190.141L 386.496 191.669"
       id="path2452" />
    <path
       style="stroke:none; fill-rule:evenodd; fill:#000000"
       d="M 384.641 186.606L 390.754 186.606C 391.488 186.606 391.488 185.977 391.488 185.653L 391.488 185.098L 392.727 185.098C 392.777 185.672 392.852 186.122 392.852 186.282C 392.852 187.844 391.973 188.188 390.84 188.188L 384.637 188.188L 384.637 189.461L 383.324 189.461L 383.324 188.188L 380.699 188.188L 380.699 186.606L 383.324 186.606L 383.324 185.098L 384.637 185.098L 384.637 186.606"
       id="path2454" />
    <path
       style="stroke:none; fill-rule:evenodd; fill:#000000"
       d="M 392.738 167.719L 385.113 167.719C 384.738 167.719 383.102 167.684 381.895 167.684L 381.895 167.719L 392.742 171.352L 392.742 173.079L 381.914 176.711L 381.914 176.747C 383.102 176.747 384.738 176.711 385.113 176.711L 392.738 176.711L 392.738 178.399L 379.824 178.399L 379.824 175.899L 390.742 172.211L 390.742 172.176L 379.824 168.508L 379.824 166.028L 392.738 166.028L 392.738 167.715"
       id="path2456" />
    <path
       style="stroke:none; fill-rule:evenodd; fill:#000000"
       d="M 392.738 157.426L 391.375 157.426L 391.34 157.461C 392.434 158.126 393.012 158.934 393.012 160.446C 393.012 161.829 392.348 163.501 390.102 163.501L 383.34 163.501L 383.34 161.919L 389.582 161.919C 391.129 161.919 391.648 161.129 391.648 160.102C 391.648 158.106 389.887 157.512 388.52 157.512L 383.34 157.512L 383.34 155.93L 392.746 155.93L 392.746 157.422"
       id="path2458" />
    <path
       style="stroke:none; fill-rule:evenodd; fill:#000000"
       d="M 383.059 149.719C 383.059 146.715 385.594 145.348 388.023 145.348C 390.449 145.348 392.988 146.711 392.988 149.719C 392.988 152.723 390.453 154.086 388.023 154.086C 385.598 154.086 383.059 152.719 383.059 149.719zM 391.621 149.719C 391.621 147.454 389.285 146.985 388.023 146.985C 386.766 146.985 384.426 147.45 384.426 149.719C 384.426 151.985 386.762 152.45 388.023 152.45C 389.281 152.45 391.621 151.985 391.621 149.719"
       id="path2460" />
    <path
       style="stroke:none; fill-rule:evenodd; fill:#000000"
       d="M 392.738 135.883L 392.738 137.465L 386.945 137.465C 385.309 137.465 384.481 137.93 384.481 139.477C 384.481 140.376 385.055 141.958 387.609 141.958L 392.734 141.958L 392.734 143.54L 383.328 143.54L 383.328 142.047L 384.656 142.047L 384.656 142.012C 384.152 141.672 383.059 140.79 383.059 139.172C 383.059 137.719 383.652 135.879 386.332 135.879L 392.734 135.879"
       id="path2462" />
    <path
       style="stroke:none; fill-rule:evenodd; fill:#000000"
       d="M 383.598 120.551C 381.602 120.641 380.973 122.293 380.973 123.751C 380.973 124.848 381.277 126.7 383.238 126.7C 384.336 126.7 384.692 125.926 384.875 125.172L 385.719 121.485C 386.113 119.813 387.121 118.555 389.172 118.555C 392.227 118.555 393.074 121.395 393.074 123.61C 393.074 126.001 392.356 126.934 391.836 127.512C 390.848 128.606 389.77 128.825 388.562 128.825L 388.562 127.188C 390.898 127.188 391.582 125.282 391.582 123.629C 391.582 122.372 391.262 120.251 389.406 120.251C 388.059 120.251 387.629 120.879 387.125 123.001L 386.516 125.645C 386.32 126.489 385.727 128.395 383.477 128.395C 381.465 128.395 379.484 127.083 379.484 123.954C 379.484 119.438 382.18 118.989 383.602 118.919L 383.602 120.555"
       id="path2464" />
    <path
       style="stroke:none; fill-rule:evenodd; fill:#000000"
       d="M 383.059 112.704C 383.059 109.7 385.594 108.333 388.023 108.333C 390.449 108.333 392.988 109.696 392.988 112.704C 392.988 115.708 390.453 117.071 388.023 117.071C 385.598 117.071 383.059 115.708 383.059 112.704zM 391.621 112.704C 391.621 110.438 389.285 109.969 388.023 109.969C 386.766 109.969 384.426 110.434 384.426 112.704C 384.426 114.969 386.762 115.434 388.023 115.434C 389.281 115.434 391.621 114.969 391.621 112.704"
       id="path2466" />
    <path
       style="stroke:none; fill-rule:evenodd; fill:#000000"
       d="M 379.82 106.493L 392.734 106.493L 392.734 104.911L 379.82 104.911L 379.82 106.493z"
       id="path2468" />
    <path
       style="stroke:none; fill-rule:evenodd; fill:#000000"
       d="M 389.785 94.5425C 390.234 94.5935 391.562 95.0275 392.356 96.2145C 392.641 96.6445 393 97.2575 393 98.7695C 393 101.415 391.004 102.977 388.289 102.977C 385.379 102.977 383.055 101.575 383.055 98.4605C 383.055 95.7465 385.211 94.4145 388.539 94.4145L 388.539 101.286C 390.5 101.286 391.633 100.368 391.633 98.5545C 391.633 97.0625 390.484 96.1795 389.781 96.1285L 389.781 94.5465L 389.785 94.5425zM 387.285 96.0545C 385.832 96.1445 384.481 96.7535 384.481 98.6795C 384.481 100.133 385.828 101.286 387.285 101.286L 387.285 96.0505"
       id="path2470" />
    <path
       style="stroke:none; fill-rule:evenodd; fill:#000000"
       d="M 392.738 84.8635L 392.738 86.4455L 386.945 86.4455C 385.309 86.4455 384.481 86.9105 384.481 88.4575C 384.481 89.3555 385.055 90.9375 387.609 90.9375L 392.734 90.9375L 392.734 92.5195L 383.328 92.5195L 383.328 91.0275L 384.656 91.0275L 384.656 90.9925C 384.152 90.6525 383.059 89.7695 383.059 88.1525C 383.059 86.6995 383.652 84.8635 386.332 84.8635L 392.734 84.8635"
       id="path2472" />
    <path
       style="stroke:none; fill-rule:evenodd; fill:#000000"
       d="M 383.059 78.6875C 383.059 75.6835 385.594 74.3165 388.023 74.3165C 390.449 74.3165 392.988 75.6795 392.988 78.6875C 392.988 81.6915 390.453 83.0545 388.023 83.0545C 385.598 83.0545 383.059 81.6915 383.059 78.6875zM 391.621 78.6875C 391.621 76.4215 389.285 75.9536 388.023 75.9536C 386.766 75.9536 384.426 76.4185 384.426 78.6875C 384.426 80.9536 386.762 81.4185 388.023 81.4185C 389.281 81.4185 391.621 80.9536 391.621 78.6875"
       id="path2474" />
    <path
       style="stroke:none; fill-rule:evenodd; fill:#000000"
       d="M 392.738 70.8945L 392.738 72.4765L 383.332 72.4765L 383.332 70.8945L 392.738 70.8945zM 381.617 72.4765L 379.82 72.4765L 379.82 70.8945L 381.617 70.8945L 381.617 72.4765"
       id="path2476" />
    <path
       style="stroke:none; fill-rule:evenodd; fill:#000000"
       d="M 392.738 60.7105L 392.738 62.2036L 391.445 62.2036L 391.445 62.2385C 392.719 62.9215 393.008 64.0005 393.008 64.9185C 393.008 68.1176 390.004 69.0545 387.758 69.0545C 385.113 69.0545 383.067 67.6365 383.067 65.1325C 383.067 63.4255 384.125 62.7075 384.664 62.3286L 384.539 62.2925L 379.828 62.2925L 379.828 60.7105L 392.742 60.7105L 392.738 60.7105zM 391.641 64.8825C 391.641 63.8785 390.977 62.3125 388.477 62.3125C 386.949 62.3125 384.484 62.5625 384.484 64.8475C 384.484 67.2925 386.805 67.4185 388.008 67.4185C 390.074 67.4185 391.641 66.6096 391.641 64.8825"
       id="path2478" />
  </g>
</svg>
