<?xml version="1.0" encoding="UTF-8" standalone="no"?>
<svg
   xmlns:dc="http://purl.org/dc/elements/1.1/"
   xmlns:cc="http://web.resource.org/cc/"
   xmlns:rdf="http://www.w3.org/1999/02/22-rdf-syntax-ns#"
   xmlns:svg="http://www.w3.org/2000/svg"
   xmlns="http://www.w3.org/2000/svg"
   xmlns:sodipodi="http://sodipodi.sourceforge.net/DTD/sodipodi-0.dtd"
   xmlns:inkscape="http://www.inkscape.org/namespaces/inkscape"
   width="451.351"
   height="81.54"
   id="svg2222"
   sodipodi:version="0.32"
   inkscape:version="0.45.1"
   sodipodi:docname="Fermilab_logo.svg"
   sodipodi:docbase="/home/paulini/doc/CMU/Grad_Program/Grad_Webpage/logos"
   inkscape:output_extension="org.inkscape.output.svg.inkscape">
  <metadata
     id="metadata2253">
    <rdf:RDF>
      <cc:Work
         rdf:about="">
        <dc:format>image/svg+xml</dc:format>
        <dc:type
           rdf:resource="http://purl.org/dc/dcmitype/StillImage" />
      </cc:Work>
    </rdf:RDF>
  </metadata>
  <sodipodi:namedview
     inkscape:window-height="638"
     inkscape:window-width="872"
     inkscape:pageshadow="2"
     inkscape:pageopacity="0.0"
     guidetolerance="10.0"
     gridtolerance="10.0"
     objecttolerance="10.0"
     borderopacity="1.0"
     bordercolor="#666666"
     pagecolor="#ffffff"
     id="base"
     inkscape:zoom="1.7237139"
     inkscape:cx="225.67551"
     inkscape:cy="40.77"
     inkscape:window-x="0"
     inkscape:window-y="0"
     inkscape:current-layer="svg2222" />
  <defs
     id="defs2224">
    <marker
       id="ArrowEnd"
       viewBox="0 0 10 10"
       refX="0"
       refY="5"
       markerUnits="strokeWidth"
       markerWidth="4"
       markerHeight="3"
       orient="auto">
      <path
         d="M 0 0 L 10 5 L 0 10 z"
         id="path2227" />
    </marker>
    <marker
       id="ArrowStart"
       viewBox="0 0 10 10"
       refX="10"
       refY="5"
       markerUnits="strokeWidth"
       markerWidth="4"
       markerHeight="3"
       orient="auto">
      <path
         d="M 10 0 L 0 5 L 10 10 z"
         id="path2230" />
    </marker>
  </defs>
  <g
     id="g2232">
    <path
       style="stroke:none; fill-rule:evenodd; fill:#000000"
       d="M 38.5903 20.04C 38.5903 20.125 38.5903 20.301 38.5903 20.387C 38.4143 30.317 30.4023 38.418 20.4727 38.59C 20.3867 38.59 20.3867 38.59 20.3867 38.59C 20.3008 38.59 20.2149 38.59 20.0391 38.59L 0.00389862 38.59L 0.00389862 25.524L 20.0391 25.524C 20.125 25.524 20.211 25.524 20.211 25.524C 22.8203 25.438 24.9141 23.606 25.4375 21.082L 11.9375 21.082L 11.9375 8.192L 25.5274 8.192L 25.5274 0L 38.5933 0L 38.5933 7.05501L 42.9453 7.05501L 42.9453 0L 56.0113 0L 56.0113 8.192L 69.6013 8.192L 69.6013 21.082L 56.0973 21.082C 56.6173 23.606 58.7073 25.438 61.3243 25.524C 61.3243 25.524 61.4103 25.524 61.4963 25.524L 81.5313 25.524L 81.5313 38.59L 61.4963 38.59C 61.3243 38.59 61.2343 38.59 61.1483 38.59C 61.1483 38.59 61.1483 38.59 61.0623 38.59C 51.1333 38.418 43.1173 30.317 42.9453 20.387C 42.9453 20.301 42.9453 20.125 42.9453 20.04L 38.5933 20.04L 38.5903 20.04zM 42.9413 61.508C 42.9413 61.422 42.9413 61.25 42.9413 61.161C 43.1133 51.231 51.1293 43.129 61.0583 42.954C 61.1443 42.954 61.1443 42.954 61.1443 42.954C 61.2303 42.954 61.3163 42.954 61.4923 42.954L 81.5273 42.954L 81.5273 56.02L 61.4923 56.02C 61.4063 56.02 61.3203 56.02 61.3203 56.02C 58.7113 56.106 56.6173 57.934 56.0933 60.461L 69.5973 60.461L 69.5973 73.352L 56.0083 73.352L 56.0083 81.54L 42.9413 81.54L 42.9413 74.485L 38.5903 74.485L 38.5903 81.54L 25.5235 81.54L 25.5235 73.352L 11.9336 73.352L 11.9336 60.461L 25.4336 60.461C 24.9141 57.938 22.8242 56.11 20.2071 56.02C 20.2071 56.02 20.1211 56.02 20.0352 56.02L 0 56.02L 0 42.954L 20.0352 42.954C 20.2071 42.954 20.293 42.954 20.3828 42.954C 20.3828 42.954 20.3828 42.954 20.4688 42.954C 30.3983 43.125 38.4103 51.227 38.5863 61.161C 38.5863 61.247 38.5863 61.418 38.5863 61.508L 42.9373 61.508"
       id="path2234" />
    <path
       style="stroke:none; fill-rule:evenodd; fill:#000000"
       d="M 116.074 73.372L 102.465 73.372L 102.465 8.21901L 148.836 8.21901L 148.836 19.743L 116.078 19.743L 116.078 34.442L 144.754 34.442L 144.754 45.961L 116.078 45.961L 116.078 73.368"
       id="path2236" />
    <path
       style="stroke:none; fill-rule:evenodd; fill:#000000"
       d="M 194.863 59.219C 191.511 70.832 181.886 74.645 173.633 74.645C 160.023 74.645 149.586 68.114 149.586 48.235C 149.586 42.43 151.578 23.829 172.726 23.829C 182.254 23.829 195.414 28.364 195.414 50.414L 195.414 52.684L 162.289 52.684C 162.648 56.313 163.375 64.481 173.633 64.481C 177.168 64.481 180.801 62.668 181.801 59.219L 194.863 59.219zM 182.34 44.426C 181.613 36.622 176.625 34.266 172.539 34.266C 166.554 34.266 163.375 38.075 162.648 44.426L 182.34 44.426"
       id="path2238" />
    <path
       style="stroke:none; fill-rule:evenodd; fill:#000000"
       d="M 201.941 25.094L 214.101 25.094L 214.101 33.442L 214.281 33.442C 216.91 28.543 219.812 23.825 227.527 23.825C 228.343 23.825 229.16 23.914 229.976 24.004L 229.976 36.887C 228.886 36.707 227.527 36.707 226.347 36.707C 216.457 36.707 214.644 42.875 214.644 48.227L 214.644 73.364L 201.941 73.364L 201.941 25.086"
       id="path2240" />
    <path
       style="stroke:none; fill-rule:evenodd; fill:#000000"
       d="M 305.59 73.372L 292.886 73.372L 292.886 44.063C 292.886 36.895 289.711 34.54 285.988 34.54C 279.636 34.54 277.367 38.711 277.367 44.43L 277.367 73.375L 264.664 73.375L 264.664 44.336C 264.664 40.258 264.664 34.54 257.043 34.54C 251.058 34.54 249.148 38.711 249.148 43.977L 249.148 73.375L 236.449 73.375L 236.449 25.098L 248.605 25.098L 248.605 32.176L 248.785 32.176C 250.418 29 253.957 23.829 262.488 23.829C 269.472 23.829 272.648 26.368 275.918 31.54C 277.551 29.184 281.09 23.829 288.801 23.829C 298.238 23.829 305.59 29.36 305.59 39.981L 305.59 73.372"
       id="path2242" />
    <path
       style="stroke:none; fill-rule:evenodd; fill:#000000"
       d="M 326.429 19.379L 313.73 19.379L 313.73 7.582L 326.429 7.582L 326.429 19.379zM 326.429 25.094L 326.429 73.372L 313.73 73.372L 313.73 25.094L 326.429 25.094"
       id="path2244" />
    <path
       style="stroke:none; fill-rule:evenodd; fill:#000000"
       d="M 335.117 73.372L 347.82 73.372L 347.82 8.21901L 335.117 8.21901L 335.117 73.372z"
       id="path2246" />
    <path
       style="stroke:none; fill-rule:evenodd; fill:#000000"
       d="M 396.281 63.938C 396.281 69.653 397.554 70.922 399.093 71.469L 399.093 73.372L 385.39 73.372C 384.668 71.106 384.484 70.379 384.215 67.657C 381.308 70.649 377.226 74.641 368.609 74.641C 361.347 74.641 353.91 70.559 353.91 60.579C 353.91 51.141 359.898 46.332 367.972 45.153L 379.41 43.43C 381.402 43.161 383.851 42.34 383.851 39.622C 383.851 34.27 378.769 33.997 375.504 33.997C 369.152 33.997 368.066 37.895 367.699 40.707L 355.449 40.707C 356.898 25.918 367.152 23.832 377.043 23.832C 383.847 23.832 396.277 25.918 396.277 37.805L 396.277 63.938L 396.281 63.938zM 383.851 49.872C 382.582 50.868 380.496 51.684 375.23 52.5C 370.515 53.317 366.613 54.493 366.613 59.758C 366.613 64.204 370.062 65.563 372.511 65.563C 378.136 65.563 383.855 61.934 383.855 56.036L 383.855 49.868"
       id="path2248" />
    <path
       style="stroke:none; fill-rule:evenodd; fill:#000000"
       d="M 417.144 31.356L 417.324 31.356C 419.316 28.27 423.133 23.829 431.297 23.829C 441.914 23.829 451.351 31.997 451.351 48.688C 451.351 61.938 445.363 74.641 431.027 74.641C 425.765 74.641 420.14 72.735 417.051 67.293L 416.871 67.293L 416.871 73.372L 404.441 73.372L 404.441 8.21901L 417.14 8.21901L 417.14 31.356L 417.144 31.356zM 427.492 34.805C 418.781 34.805 416.605 42.61 416.605 50.321C 416.605 57.489 419.781 64.204 427.859 64.204C 436.023 64.204 438.297 55.313 438.297 49.59C 438.297 41.973 435.574 34.801 427.496 34.801"
       id="path2250" />
  </g>
</svg>
