<?xml version="1.0" encoding="UTF-8" standalone="no"?>
<svg
   xmlns:dc="http://purl.org/dc/elements/1.1/"
   xmlns:cc="http://web.resource.org/cc/"
   xmlns:rdf="http://www.w3.org/1999/02/22-rdf-syntax-ns#"
   xmlns:svg="http://www.w3.org/2000/svg"
   xmlns="http://www.w3.org/2000/svg"
   xmlns:sodipodi="http://sodipodi.sourceforge.net/DTD/sodipodi-0.dtd"
   xmlns:inkscape="http://www.inkscape.org/namespaces/inkscape"
   width="468.375"
   height="468.376"
   id="svg2250"
   sodipodi:version="0.32"
   inkscape:version="0.45.1"
   sodipodi:docname="Fermilab_mark.svg"
   sodipodi:docbase="/home/paulini/doc/CMU/Grad_Program/Grad_Webpage/logos"
   inkscape:output_extension="org.inkscape.output.svg.inkscape">
  <metadata
     id="metadata2267">
    <rdf:RDF>
      <cc:Work
         rdf:about="">
        <dc:format>image/svg+xml</dc:format>
        <dc:type
           rdf:resource="http://purl.org/dc/dcmitype/StillImage" />
      </cc:Work>
    </rdf:RDF>
  </metadata>
  <sodipodi:namedview
     inkscape:window-height="638"
     inkscape:window-width="872"
     inkscape:pageshadow="2"
     inkscape:pageopacity="0.0"
     guidetolerance="10.0"
     gridtolerance="10.0"
     objecttolerance="10.0"
     borderopacity="1.0"
     bordercolor="#666666"
     pagecolor="#ffffff"
     id="base"
     inkscape:zoom="0.86895997"
     inkscape:cx="234.1875"
     inkscape:cy="234.188"
     inkscape:window-x="466"
     inkscape:window-y="332"
     inkscape:current-layer="svg2250" />
  <defs
     id="defs2252">
    <marker
       id="ArrowEnd"
       viewBox="0 0 10 10"
       refX="0"
       refY="5"
       markerUnits="strokeWidth"
       markerWidth="4"
       markerHeight="3"
       orient="auto">
      <path
         d="M 0 0 L 10 5 L 0 10 z"
         id="path2255" />
    </marker>
    <marker
       id="ArrowStart"
       viewBox="0 0 10 10"
       refX="10"
       refY="5"
       markerUnits="strokeWidth"
       markerWidth="4"
       markerHeight="3"
       orient="auto">
      <path
         d="M 10 0 L 0 5 L 10 10 z"
         id="path2258" />
    </marker>
  </defs>
  <g
     id="g2260">
    <path
       style="stroke:none; fill-rule:evenodd; fill:#000000"
       d="M 221.688 40.438L 221.688 0L 146.688 0L 146.688 46.688L 68.8285 46.688L 68.8285 121.688L 146.055 121.688L 146.055 121.692C 143.085 136.239 130.286 146.684 115.438 146.684L 0 146.684L 0 221.684L 115.438 221.684C 174.117 221.684 221.688 174.118 221.688 115.434L 246.688 115.434C 246.688 174.114 294.254 221.684 352.938 221.684L 468.375 221.684L 468.375 146.684L 352.938 146.684C 338.09 146.684 325.293 136.235 322.32 121.688L 399.547 121.688L 399.547 46.688L 321.688 46.688L 321.688 0L 246.688 0L 246.688 40.438"
       id="path2262" />
    <path
       style="stroke:none; fill-rule:evenodd; fill:#000000"
       d="M 246.688 427.938L 246.688 468.376L 321.688 468.376L 321.688 421.688L 399.547 421.688L 399.547 346.688L 322.32 346.688L 322.32 346.688C 325.289 332.141 338.09 321.692 352.938 321.692L 468.375 321.692L 468.375 246.692L 352.938 246.692C 294.258 246.692 246.688 294.258 246.688 352.942L 221.688 352.942C 221.688 294.262 174.122 246.692 115.438 246.692L 0 246.692L 0 321.692L 115.438 321.692C 130.286 321.692 143.083 332.141 146.055 346.688L 68.8285 346.688L 68.8285 421.688L 146.688 421.688L 146.688 468.376L 221.688 468.376L 221.688 427.938"
       id="path2264" />
  </g>
</svg>
